<svg xmlns="http://www.w3.org/2000/svg" width="75" viewBox="0 0 75 52.5" height="52.5" version="1.0"><defs><clipPath id="a"><path d="M 0.355469 0 L 74.644531 0 L 74.644531 52.003906 L 0.355469 52.003906 Z M 0.355469 0"/></clipPath></defs><g clip-path="url(#a)" fill="#FFF"><path d="M 0.355469 0 L 74.644531 0 L 74.644531 59.433594 L 0.355469 59.433594 Z M 0.355469 0"/><path d="M 0.355469 0 L 74.644531 0 L 74.644531 52.003906 L 0.355469 52.003906 Z M 0.355469 0"/><path d="M 0.355469 0 L 74.644531 0 L 74.644531 52.003906 L 0.355469 52.003906 Z M 0.355469 0"/></g><g><g><g><path d="M 6.96875 -8.421875 C 7.09375 -7.953125 7.175781 -7.367188 7.21875 -6.671875 C 7.269531 -5.972656 7.25 -5.226562 7.15625 -4.4375 C 7.070312 -3.644531 6.882812 -2.828125 6.59375 -1.984375 C 6.300781 -1.140625 5.863281 -0.328125 5.28125 0.453125 C 4.925781 0.941406 4.492188 1.382812 3.984375 1.78125 C 3.484375 2.1875 2.929688 2.453125 2.328125 2.578125 C 2.003906 2.617188 1.703125 2.59375 1.421875 2.5 C 1.148438 2.40625 0.96875 2.179688 0.875 1.828125 C 0.820312 1.671875 0.796875 1.515625 0.796875 1.359375 C 0.796875 1.203125 0.8125 1.046875 0.84375 0.890625 C 0.925781 0.335938 1.164062 -0.1875 1.5625 -0.6875 C 1.957031 -1.195312 2.421875 -1.660156 2.953125 -2.078125 C 3.484375 -2.503906 4.035156 -2.882812 4.609375 -3.21875 C 5.191406 -3.5625 5.707031 -3.835938 6.15625 -4.046875 C 6.320312 -4.140625 6.410156 -4.269531 6.421875 -4.4375 C 6.484375 -4.8125 6.519531 -5.195312 6.53125 -5.59375 C 6.539062 -6 6.550781 -6.410156 6.5625 -6.828125 C 6.539062 -7.160156 6.5 -7.488281 6.4375 -7.8125 C 6.382812 -8.132812 6.3125 -8.453125 6.21875 -8.765625 C 6.125 -9.109375 5.984375 -9.425781 5.796875 -9.71875 C 5.609375 -10.019531 5.382812 -10.269531 5.125 -10.46875 C 4.863281 -10.675781 4.566406 -10.828125 4.234375 -10.921875 C 3.910156 -11.015625 3.5625 -11.035156 3.1875 -10.984375 C 2.71875 -10.890625 2.25 -10.726562 1.78125 -10.5 C 1.320312 -10.28125 0.890625 -10.007812 0.484375 -9.6875 C 0.0859375 -9.375 -0.253906 -9.015625 -0.546875 -8.609375 C -0.847656 -8.210938 -1.0625 -7.773438 -1.1875 -7.296875 C -1.207031 -7.160156 -1.207031 -7.039062 -1.1875 -6.9375 C -1.101562 -6.519531 -0.925781 -6.335938 -0.65625 -6.390625 C -0.519531 -6.421875 -0.382812 -6.484375 -0.25 -6.578125 C -0.113281 -6.671875 -0.0078125 -6.773438 0.0625 -6.890625 C 0.0703125 -6.929688 0.0859375 -6.96875 0.109375 -7 C 0.128906 -7.03125 0.148438 -7.0625 0.171875 -7.09375 C 0.191406 -7.113281 0.222656 -7.128906 0.265625 -7.140625 C 0.273438 -7.140625 0.285156 -7.140625 0.296875 -7.140625 C 0.304688 -7.140625 0.316406 -7.140625 0.328125 -7.140625 C 0.347656 -7.117188 0.367188 -7.097656 0.390625 -7.078125 C 0.410156 -7.054688 0.421875 -7.03125 0.421875 -7 C 0.429688 -6.882812 0.40625 -6.78125 0.34375 -6.6875 C 0.289062 -6.59375 0.21875 -6.507812 0.125 -6.4375 C 0.0390625 -6.363281 -0.0507812 -6.300781 -0.15625 -6.25 C -0.269531 -6.207031 -0.375 -6.175781 -0.46875 -6.15625 C -0.707031 -6.101562 -0.925781 -6.125 -1.125 -6.21875 C -1.332031 -6.3125 -1.484375 -6.484375 -1.578125 -6.734375 C -1.660156 -6.972656 -1.675781 -7.191406 -1.625 -7.390625 C -1.601562 -7.515625 -1.570312 -7.640625 -1.53125 -7.765625 C -1.488281 -7.890625 -1.441406 -8.007812 -1.390625 -8.125 C -1.234375 -8.488281 -1 -8.835938 -0.6875 -9.171875 C -0.382812 -9.503906 -0.046875 -9.804688 0.328125 -10.078125 C 0.703125 -10.359375 1.09375 -10.597656 1.5 -10.796875 C 1.90625 -10.992188 2.296875 -11.128906 2.671875 -11.203125 C 3.191406 -11.316406 3.679688 -11.328125 4.140625 -11.234375 C 4.597656 -11.140625 5.015625 -10.972656 5.390625 -10.734375 C 5.765625 -10.492188 6.085938 -10.171875 6.359375 -9.765625 C 6.628906 -9.367188 6.832031 -8.921875 6.96875 -8.421875 Z M 1.359375 1.78125 C 1.421875 1.988281 1.507812 2.125 1.625 2.1875 C 1.738281 2.25 1.898438 2.257812 2.109375 2.21875 C 2.253906 2.1875 2.394531 2.140625 2.53125 2.078125 C 2.664062 2.015625 2.800781 1.941406 2.9375 1.859375 C 3.375 1.585938 3.769531 1.25 4.125 0.84375 C 4.476562 0.4375 4.789062 0.00390625 5.0625 -0.453125 C 5.34375 -0.921875 5.582031 -1.40625 5.78125 -1.90625 C 5.976562 -2.414062 6.140625 -2.914062 6.265625 -3.40625 C 6.265625 -3.445312 6.265625 -3.484375 6.265625 -3.515625 C 6.273438 -3.546875 6.28125 -3.585938 6.28125 -3.640625 C 6.269531 -3.691406 6.234375 -3.707031 6.171875 -3.6875 C 6.109375 -3.675781 6.0625 -3.660156 6.03125 -3.640625 C 5.632812 -3.453125 5.175781 -3.203125 4.65625 -2.890625 C 4.144531 -2.578125 3.660156 -2.222656 3.203125 -1.828125 C 2.742188 -1.441406 2.335938 -1.019531 1.984375 -0.5625 C 1.640625 -0.101562 1.410156 0.359375 1.296875 0.828125 C 1.210938 1.148438 1.234375 1.46875 1.359375 1.78125 Z M 1.359375 1.78125" transform="translate(11.613 21.062)"/></g></g></g><g><g><g><path d="M 8.703125 -1.9375 C 8.765625 -1.957031 8.800781 -1.9375 8.8125 -1.875 C 8.820312 -1.8125 8.796875 -1.769531 8.734375 -1.75 C 8.515625 -1.707031 8.296875 -1.6875 8.078125 -1.6875 C 7.859375 -1.6875 7.648438 -1.71875 7.453125 -1.78125 C 7.265625 -1.851562 7.097656 -1.960938 6.953125 -2.109375 C 6.804688 -2.253906 6.695312 -2.441406 6.625 -2.671875 C 6.625 -2.691406 6.617188 -2.707031 6.609375 -2.71875 C 6.609375 -2.726562 6.601562 -2.742188 6.59375 -2.765625 C 6.570312 -2.828125 6.539062 -2.878906 6.5 -2.921875 C 6.46875 -2.941406 6.445312 -2.957031 6.4375 -2.96875 C 6.425781 -2.988281 6.410156 -2.992188 6.390625 -2.984375 C 6.378906 -2.984375 6.367188 -2.976562 6.359375 -2.96875 C 6.304688 -2.914062 6.257812 -2.863281 6.21875 -2.8125 C 6.175781 -2.769531 6.132812 -2.734375 6.09375 -2.703125 C 5.945312 -2.585938 5.796875 -2.472656 5.640625 -2.359375 C 5.484375 -2.253906 5.316406 -2.1875 5.140625 -2.15625 C 4.796875 -2.082031 4.46875 -2.164062 4.15625 -2.40625 C 4.144531 -2.414062 4.128906 -2.425781 4.109375 -2.4375 C 4.097656 -2.445312 4.085938 -2.460938 4.078125 -2.484375 C 4.003906 -2.503906 3.953125 -2.515625 3.921875 -2.515625 C 3.898438 -2.503906 3.878906 -2.484375 3.859375 -2.453125 C 3.398438 -1.898438 2.894531 -1.394531 2.34375 -0.9375 C 1.800781 -0.476562 1.164062 -0.171875 0.4375 -0.015625 C 0.351562 0.015625 0.273438 0.0351562 0.203125 0.046875 C 0.140625 0.0664062 0.0703125 0.0820312 0 0.09375 C -0.03125 0.101562 -0.0625 0.101562 -0.09375 0.09375 C -0.125 0.09375 -0.144531 0.0703125 -0.15625 0.03125 C -0.164062 -0.03125 -0.140625 -0.0664062 -0.078125 -0.078125 C -0.015625 -0.0859375 0.046875 -0.101562 0.109375 -0.125 C 0.179688 -0.144531 0.242188 -0.164062 0.296875 -0.1875 C 1.003906 -0.425781 1.617188 -0.75 2.140625 -1.15625 C 2.671875 -1.570312 3.148438 -2.082031 3.578125 -2.6875 C 3.703125 -2.894531 3.796875 -3.117188 3.859375 -3.359375 C 3.941406 -3.796875 4.132812 -4.164062 4.4375 -4.46875 C 4.75 -4.769531 5.117188 -4.96875 5.546875 -5.0625 C 5.867188 -5.125 6.175781 -5.070312 6.46875 -4.90625 C 6.476562 -4.90625 6.488281 -4.894531 6.5 -4.875 C 6.519531 -4.851562 6.523438 -4.832031 6.515625 -4.8125 C 6.523438 -4.800781 6.519531 -4.789062 6.5 -4.78125 C 6.476562 -4.769531 6.457031 -4.757812 6.4375 -4.75 C 6.382812 -4.738281 6.347656 -4.734375 6.328125 -4.734375 C 6.234375 -4.734375 6.148438 -4.734375 6.078125 -4.734375 C 6.015625 -4.742188 5.941406 -4.738281 5.859375 -4.71875 C 5.671875 -4.675781 5.476562 -4.59375 5.28125 -4.46875 C 5.082031 -4.34375 4.910156 -4.1875 4.765625 -4 C 4.617188 -3.8125 4.5 -3.613281 4.40625 -3.40625 C 4.3125 -3.207031 4.289062 -3 4.34375 -2.78125 C 4.375 -2.644531 4.445312 -2.535156 4.5625 -2.453125 C 4.675781 -2.367188 4.8125 -2.34375 4.96875 -2.375 C 5.03125 -2.382812 5.09375 -2.398438 5.15625 -2.421875 C 5.21875 -2.453125 5.28125 -2.484375 5.34375 -2.515625 C 5.90625 -2.847656 6.296875 -3.316406 6.515625 -3.921875 C 6.535156 -4.003906 6.5625 -4.085938 6.59375 -4.171875 C 6.625 -4.253906 6.660156 -4.34375 6.703125 -4.4375 C 6.742188 -4.5 6.773438 -4.546875 6.796875 -4.578125 C 6.804688 -4.585938 6.832031 -4.597656 6.875 -4.609375 C 6.9375 -4.617188 6.988281 -4.613281 7.03125 -4.59375 C 7.050781 -4.570312 7.066406 -4.546875 7.078125 -4.515625 C 7.097656 -4.492188 7.109375 -4.46875 7.109375 -4.4375 C 7.085938 -4.21875 7.046875 -4.019531 6.984375 -3.84375 C 6.921875 -3.539062 6.925781 -3.242188 7 -2.953125 C 7.070312 -2.640625 7.21875 -2.390625 7.4375 -2.203125 C 7.664062 -2.015625 7.941406 -1.914062 8.265625 -1.90625 C 8.335938 -1.894531 8.410156 -1.894531 8.484375 -1.90625 C 8.554688 -1.925781 8.628906 -1.9375 8.703125 -1.9375 Z M 8.703125 -1.9375" transform="translate(25.166 18.192)"/></g></g></g><g><g><g><path d="M 10.5625 -2.328125 C 10.632812 -2.347656 10.675781 -2.328125 10.6875 -2.265625 C 10.707031 -2.179688 10.675781 -2.140625 10.59375 -2.140625 C 9.78125 -1.972656 9.238281 -2.019531 8.96875 -2.28125 C 8.800781 -2.363281 8.671875 -2.476562 8.578125 -2.625 C 8.484375 -2.78125 8.453125 -2.988281 8.484375 -3.25 C 8.503906 -3.507812 8.550781 -3.75 8.625 -3.96875 C 8.695312 -4.195312 8.753906 -4.390625 8.796875 -4.546875 C 8.828125 -4.628906 8.859375 -4.707031 8.890625 -4.78125 C 8.921875 -4.863281 8.90625 -4.953125 8.84375 -5.046875 C 8.820312 -5.046875 8.804688 -5.046875 8.796875 -5.046875 C 8.785156 -5.054688 8.773438 -5.054688 8.765625 -5.046875 C 8.703125 -5.035156 8.613281 -4.976562 8.5 -4.875 C 8.382812 -4.78125 8.273438 -4.671875 8.171875 -4.546875 C 8.066406 -4.421875 7.96875 -4.304688 7.875 -4.203125 C 7.789062 -4.097656 7.726562 -4.019531 7.6875 -3.96875 C 7.550781 -3.769531 7.421875 -3.570312 7.296875 -3.375 C 7.171875 -3.175781 7.039062 -2.972656 6.90625 -2.765625 C 6.875 -2.710938 6.84375 -2.664062 6.8125 -2.625 C 6.789062 -2.582031 6.765625 -2.546875 6.734375 -2.515625 C 6.691406 -2.484375 6.660156 -2.46875 6.640625 -2.46875 C 6.585938 -2.457031 6.535156 -2.457031 6.484375 -2.46875 C 6.441406 -2.488281 6.410156 -2.53125 6.390625 -2.59375 C 6.304688 -2.78125 6.28125 -2.953125 6.3125 -3.109375 C 6.3125 -3.222656 6.316406 -3.332031 6.328125 -3.4375 C 6.347656 -3.550781 6.367188 -3.660156 6.390625 -3.765625 C 6.398438 -3.878906 6.414062 -3.992188 6.4375 -4.109375 C 6.46875 -4.234375 6.5 -4.359375 6.53125 -4.484375 C 6.539062 -4.535156 6.546875 -4.582031 6.546875 -4.625 C 6.546875 -4.675781 6.550781 -4.722656 6.5625 -4.765625 C 6.550781 -4.796875 6.53125 -4.828125 6.5 -4.859375 L 6.484375 -4.84375 C 6.472656 -4.851562 6.460938 -4.851562 6.453125 -4.84375 C 6.242188 -4.726562 6.050781 -4.566406 5.875 -4.359375 C 5.695312 -4.160156 5.554688 -3.957031 5.453125 -3.75 C 5.316406 -3.539062 5.195312 -3.320312 5.09375 -3.09375 C 4.988281 -2.875 4.863281 -2.65625 4.71875 -2.4375 C 4.6875 -2.375 4.660156 -2.304688 4.640625 -2.234375 C 4.617188 -2.171875 4.585938 -2.113281 4.546875 -2.0625 C 4.515625 -2 4.457031 -1.957031 4.375 -1.9375 C 4.300781 -1.925781 4.242188 -1.925781 4.203125 -1.9375 C 4.046875 -1.945312 3.96875 -2.035156 3.96875 -2.203125 C 3.96875 -2.253906 3.96875 -2.304688 3.96875 -2.359375 C 3.976562 -2.421875 3.988281 -2.488281 4 -2.5625 C 3.988281 -2.582031 3.988281 -2.601562 4 -2.625 C 3.488281 -1.988281 2.882812 -1.414062 2.1875 -0.90625 C 1.5 -0.40625 0.753906 -0.0664062 -0.046875 0.109375 C -0.109375 0.117188 -0.144531 0.09375 -0.15625 0.03125 C -0.164062 -0.03125 -0.140625 -0.0664062 -0.078125 -0.078125 C 0.523438 -0.203125 1.09375 -0.429688 1.625 -0.765625 C 2.164062 -1.097656 2.660156 -1.488281 3.109375 -1.9375 C 3.367188 -2.25 3.597656 -2.582031 3.796875 -2.9375 C 3.992188 -3.289062 4.160156 -3.628906 4.296875 -3.953125 C 4.347656 -4.078125 4.40625 -4.234375 4.46875 -4.421875 C 4.53125 -4.609375 4.613281 -4.785156 4.71875 -4.953125 C 4.726562 -4.972656 4.753906 -4.992188 4.796875 -5.015625 C 4.835938 -5.035156 4.875 -5.046875 4.90625 -5.046875 C 4.96875 -5.078125 5.03125 -5.070312 5.09375 -5.03125 C 5.15625 -4.988281 5.179688 -4.9375 5.171875 -4.875 C 5.160156 -4.78125 5.144531 -4.6875 5.125 -4.59375 C 5.101562 -4.5 5.085938 -4.414062 5.078125 -4.34375 C 5.054688 -4.25 5.03125 -4.160156 5 -4.078125 C 4.976562 -3.992188 4.984375 -3.90625 5.015625 -3.8125 C 5.117188 -3.945312 5.222656 -4.082031 5.328125 -4.21875 C 5.441406 -4.351562 5.550781 -4.472656 5.65625 -4.578125 C 5.738281 -4.679688 5.867188 -4.804688 6.046875 -4.953125 C 6.222656 -5.097656 6.382812 -5.1875 6.53125 -5.21875 C 6.613281 -5.238281 6.710938 -5.234375 6.828125 -5.203125 C 6.984375 -5.140625 7.082031 -5.039062 7.125 -4.90625 C 7.132812 -4.851562 7.140625 -4.804688 7.140625 -4.765625 C 7.148438 -4.722656 7.160156 -4.675781 7.171875 -4.625 C 7.179688 -4.570312 7.171875 -4.515625 7.140625 -4.453125 C 7.117188 -4.390625 7.140625 -4.328125 7.203125 -4.265625 C 7.253906 -4.304688 7.296875 -4.347656 7.328125 -4.390625 C 7.367188 -4.441406 7.414062 -4.488281 7.46875 -4.53125 C 7.632812 -4.71875 7.835938 -4.910156 8.078125 -5.109375 C 8.316406 -5.316406 8.5625 -5.445312 8.8125 -5.5 C 8.863281 -5.519531 8.910156 -5.53125 8.953125 -5.53125 C 8.992188 -5.53125 9.039062 -5.53125 9.09375 -5.53125 C 9.363281 -5.507812 9.515625 -5.398438 9.546875 -5.203125 C 9.585938 -5.015625 9.582031 -4.785156 9.53125 -4.515625 C 9.476562 -4.242188 9.398438 -3.960938 9.296875 -3.671875 C 9.203125 -3.378906 9.164062 -3.125 9.1875 -2.90625 C 9.195312 -2.71875 9.238281 -2.570312 9.3125 -2.46875 C 9.382812 -2.363281 9.460938 -2.289062 9.546875 -2.25 C 9.828125 -2.21875 10.164062 -2.242188 10.5625 -2.328125 Z M 10.5625 -2.328125" transform="translate(32.894 16.555)"/></g></g></g><g><g><g><path d="M 8.703125 -1.9375 C 8.765625 -1.957031 8.800781 -1.9375 8.8125 -1.875 C 8.820312 -1.8125 8.796875 -1.769531 8.734375 -1.75 C 8.515625 -1.707031 8.296875 -1.6875 8.078125 -1.6875 C 7.859375 -1.6875 7.648438 -1.71875 7.453125 -1.78125 C 7.265625 -1.851562 7.097656 -1.960938 6.953125 -2.109375 C 6.804688 -2.253906 6.695312 -2.441406 6.625 -2.671875 C 6.625 -2.691406 6.617188 -2.707031 6.609375 -2.71875 C 6.609375 -2.726562 6.601562 -2.742188 6.59375 -2.765625 C 6.570312 -2.828125 6.539062 -2.878906 6.5 -2.921875 C 6.46875 -2.941406 6.445312 -2.957031 6.4375 -2.96875 C 6.425781 -2.988281 6.410156 -2.992188 6.390625 -2.984375 C 6.378906 -2.984375 6.367188 -2.976562 6.359375 -2.96875 C 6.304688 -2.914062 6.257812 -2.863281 6.21875 -2.8125 C 6.175781 -2.769531 6.132812 -2.734375 6.09375 -2.703125 C 5.945312 -2.585938 5.796875 -2.472656 5.640625 -2.359375 C 5.484375 -2.253906 5.316406 -2.1875 5.140625 -2.15625 C 4.796875 -2.082031 4.46875 -2.164062 4.15625 -2.40625 C 4.144531 -2.414062 4.128906 -2.425781 4.109375 -2.4375 C 4.097656 -2.445312 4.085938 -2.460938 4.078125 -2.484375 C 4.003906 -2.503906 3.953125 -2.515625 3.921875 -2.515625 C 3.898438 -2.503906 3.878906 -2.484375 3.859375 -2.453125 C 3.398438 -1.898438 2.894531 -1.394531 2.34375 -0.9375 C 1.800781 -0.476562 1.164062 -0.171875 0.4375 -0.015625 C 0.351562 0.015625 0.273438 0.0351562 0.203125 0.046875 C 0.140625 0.0664062 0.0703125 0.0820312 0 0.09375 C -0.03125 0.101562 -0.0625 0.101562 -0.09375 0.09375 C -0.125 0.09375 -0.144531 0.0703125 -0.15625 0.03125 C -0.164062 -0.03125 -0.140625 -0.0664062 -0.078125 -0.078125 C -0.015625 -0.0859375 0.046875 -0.101562 0.109375 -0.125 C 0.179688 -0.144531 0.242188 -0.164062 0.296875 -0.1875 C 1.003906 -0.425781 1.617188 -0.75 2.140625 -1.15625 C 2.671875 -1.570312 3.148438 -2.082031 3.578125 -2.6875 C 3.703125 -2.894531 3.796875 -3.117188 3.859375 -3.359375 C 3.941406 -3.796875 4.132812 -4.164062 4.4375 -4.46875 C 4.75 -4.769531 5.117188 -4.96875 5.546875 -5.0625 C 5.867188 -5.125 6.175781 -5.070312 6.46875 -4.90625 C 6.476562 -4.90625 6.488281 -4.894531 6.5 -4.875 C 6.519531 -4.851562 6.523438 -4.832031 6.515625 -4.8125 C 6.523438 -4.800781 6.519531 -4.789062 6.5 -4.78125 C 6.476562 -4.769531 6.457031 -4.757812 6.4375 -4.75 C 6.382812 -4.738281 6.347656 -4.734375 6.328125 -4.734375 C 6.234375 -4.734375 6.148438 -4.734375 6.078125 -4.734375 C 6.015625 -4.742188 5.941406 -4.738281 5.859375 -4.71875 C 5.671875 -4.675781 5.476562 -4.59375 5.28125 -4.46875 C 5.082031 -4.34375 4.910156 -4.1875 4.765625 -4 C 4.617188 -3.8125 4.5 -3.613281 4.40625 -3.40625 C 4.3125 -3.207031 4.289062 -3 4.34375 -2.78125 C 4.375 -2.644531 4.445312 -2.535156 4.5625 -2.453125 C 4.675781 -2.367188 4.8125 -2.34375 4.96875 -2.375 C 5.03125 -2.382812 5.09375 -2.398438 5.15625 -2.421875 C 5.21875 -2.453125 5.28125 -2.484375 5.34375 -2.515625 C 5.90625 -2.847656 6.296875 -3.316406 6.515625 -3.921875 C 6.535156 -4.003906 6.5625 -4.085938 6.59375 -4.171875 C 6.625 -4.253906 6.660156 -4.34375 6.703125 -4.4375 C 6.742188 -4.5 6.773438 -4.546875 6.796875 -4.578125 C 6.804688 -4.585938 6.832031 -4.597656 6.875 -4.609375 C 6.9375 -4.617188 6.988281 -4.613281 7.03125 -4.59375 C 7.050781 -4.570312 7.066406 -4.546875 7.078125 -4.515625 C 7.097656 -4.492188 7.109375 -4.46875 7.109375 -4.4375 C 7.085938 -4.21875 7.046875 -4.019531 6.984375 -3.84375 C 6.921875 -3.539062 6.925781 -3.242188 7 -2.953125 C 7.070312 -2.640625 7.21875 -2.390625 7.4375 -2.203125 C 7.664062 -2.015625 7.941406 -1.914062 8.265625 -1.90625 C 8.335938 -1.894531 8.410156 -1.894531 8.484375 -1.90625 C 8.554688 -1.925781 8.628906 -1.9375 8.703125 -1.9375 Z M 8.703125 -1.9375" transform="translate(50.888 12.744)"/></g></g></g><g><g><g><path d="M 8.15625 -12.984375 C 8.457031 -12.910156 8.628906 -12.722656 8.671875 -12.421875 C 8.703125 -12.234375 8.691406 -11.988281 8.640625 -11.6875 C 8.597656 -11.382812 8.539062 -11.066406 8.46875 -10.734375 C 8.394531 -10.410156 8.304688 -10.097656 8.203125 -9.796875 C 8.109375 -9.503906 8.035156 -9.269531 7.984375 -9.09375 C 7.703125 -8.40625 7.414062 -7.71875 7.125 -7.03125 C 6.832031 -6.351562 6.472656 -5.71875 6.046875 -5.125 C 5.929688 -4.945312 5.878906 -4.757812 5.890625 -4.5625 C 5.898438 -4.3125 5.925781 -4.070312 5.96875 -3.84375 C 6.019531 -3.613281 6.097656 -3.382812 6.203125 -3.15625 C 6.328125 -2.894531 6.484375 -2.664062 6.671875 -2.46875 C 6.859375 -2.269531 7.082031 -2.101562 7.34375 -1.96875 C 7.375 -1.945312 7.40625 -1.925781 7.4375 -1.90625 C 7.476562 -1.882812 7.519531 -1.863281 7.5625 -1.84375 C 7.851562 -1.8125 8.164062 -1.828125 8.5 -1.890625 C 8.570312 -1.910156 8.613281 -1.890625 8.625 -1.828125 C 8.632812 -1.765625 8.601562 -1.722656 8.53125 -1.703125 C 7.769531 -1.546875 7.140625 -1.632812 6.640625 -1.96875 C 6.515625 -2.03125 6.390625 -2.125 6.265625 -2.25 C 6.148438 -2.375 6.035156 -2.515625 5.921875 -2.671875 C 5.816406 -2.828125 5.722656 -2.984375 5.640625 -3.140625 C 5.566406 -3.304688 5.515625 -3.457031 5.484375 -3.59375 C 5.421875 -3.769531 5.375 -3.878906 5.34375 -3.921875 C 5.03125 -3.503906 4.6875 -3.082031 4.3125 -2.65625 C 3.9375 -2.238281 3.519531 -1.84375 3.0625 -1.46875 C 2.613281 -1.101562 2.128906 -0.78125 1.609375 -0.5 C 1.097656 -0.21875 0.546875 -0.015625 -0.046875 0.109375 C -0.109375 0.117188 -0.144531 0.09375 -0.15625 0.03125 C -0.164062 -0.03125 -0.140625 -0.0664062 -0.078125 -0.078125 C 0.773438 -0.265625 1.554688 -0.601562 2.265625 -1.09375 C 2.972656 -1.59375 3.601562 -2.15625 4.15625 -2.78125 C 4.3125 -3 4.46875 -3.222656 4.625 -3.453125 C 4.78125 -3.691406 4.9375 -3.953125 5.09375 -4.234375 C 5.175781 -4.328125 5.222656 -4.414062 5.234375 -4.5 C 5.253906 -4.59375 5.257812 -4.71875 5.25 -4.875 C 5.238281 -5.03125 5.222656 -5.222656 5.203125 -5.453125 C 5.191406 -5.691406 5.1875 -5.992188 5.1875 -6.359375 C 5.175781 -6.984375 5.222656 -7.59375 5.328125 -8.1875 C 5.429688 -8.78125 5.566406 -9.375 5.734375 -9.96875 C 5.804688 -10.1875 5.898438 -10.457031 6.015625 -10.78125 C 6.128906 -11.101562 6.265625 -11.421875 6.421875 -11.734375 C 6.578125 -12.046875 6.757812 -12.320312 6.96875 -12.5625 C 7.175781 -12.8125 7.410156 -12.960938 7.671875 -13.015625 C 7.835938 -13.054688 8 -13.046875 8.15625 -12.984375 Z M 8.203125 -11.75 C 8.203125 -11.832031 8.203125 -11.921875 8.203125 -12.015625 C 8.203125 -12.109375 8.203125 -12.195312 8.203125 -12.28125 C 8.171875 -12.34375 8.148438 -12.394531 8.140625 -12.4375 C 8.128906 -12.476562 8.109375 -12.519531 8.078125 -12.5625 C 8.035156 -12.664062 7.96875 -12.707031 7.875 -12.6875 C 7.832031 -12.675781 7.800781 -12.664062 7.78125 -12.65625 C 7.71875 -12.570312 7.648438 -12.5 7.578125 -12.4375 C 7.515625 -12.375 7.460938 -12.304688 7.421875 -12.234375 C 7.210938 -11.921875 7.019531 -11.546875 6.84375 -11.109375 C 6.675781 -10.679688 6.53125 -10.238281 6.40625 -9.78125 C 6.289062 -9.332031 6.191406 -8.882812 6.109375 -8.4375 C 6.023438 -7.988281 5.957031 -7.566406 5.90625 -7.171875 C 5.882812 -6.984375 5.875 -6.796875 5.875 -6.609375 C 5.875 -6.421875 5.867188 -6.234375 5.859375 -6.046875 C 5.847656 -6.003906 5.847656 -5.96875 5.859375 -5.9375 C 5.878906 -5.90625 5.894531 -5.867188 5.90625 -5.828125 C 5.90625 -5.804688 5.914062 -5.796875 5.9375 -5.796875 C 5.976562 -5.773438 5.992188 -5.78125 5.984375 -5.8125 C 6.046875 -5.894531 6.101562 -5.972656 6.15625 -6.046875 C 6.207031 -6.117188 6.257812 -6.203125 6.3125 -6.296875 C 6.550781 -6.742188 6.765625 -7.195312 6.953125 -7.65625 C 7.140625 -8.125 7.320312 -8.585938 7.5 -9.046875 C 7.675781 -9.472656 7.828125 -9.910156 7.953125 -10.359375 C 8.078125 -10.816406 8.160156 -11.28125 8.203125 -11.75 Z M 8.203125 -11.75" transform="translate(9.744 34.368)"/></g></g></g><g><g><g><path d="M 5.171875 -6.15625 C 5.234375 -6.113281 5.265625 -6.050781 5.265625 -5.96875 C 5.253906 -5.863281 5.207031 -5.800781 5.125 -5.78125 C 5.082031 -5.78125 5.035156 -5.785156 4.984375 -5.796875 C 4.941406 -5.804688 4.890625 -5.8125 4.828125 -5.8125 C 4.703125 -5.832031 4.648438 -5.90625 4.671875 -6.03125 C 4.679688 -6.144531 4.757812 -6.21875 4.90625 -6.25 C 5.019531 -6.238281 5.109375 -6.207031 5.171875 -6.15625 Z M 6.046875 -1.375 C 6.109375 -1.394531 6.144531 -1.375 6.15625 -1.3125 C 6.164062 -1.25 6.140625 -1.207031 6.078125 -1.1875 C 5.640625 -1.09375 5.28125 -1.054688 5 -1.078125 C 4.726562 -1.097656 4.507812 -1.164062 4.34375 -1.28125 C 4.132812 -1.382812 3.976562 -1.53125 3.875 -1.71875 C 3.769531 -1.914062 3.695312 -2.117188 3.65625 -2.328125 C 3.582031 -2.285156 3.523438 -2.234375 3.484375 -2.171875 C 3.441406 -2.109375 3.394531 -2.046875 3.34375 -1.984375 C 3.113281 -1.671875 2.859375 -1.398438 2.578125 -1.171875 C 2.296875 -0.941406 1.992188 -0.742188 1.671875 -0.578125 C 1.148438 -0.253906 0.59375 -0.03125 0 0.09375 C -0.03125 0.101562 -0.0625 0.101562 -0.09375 0.09375 C -0.125 0.09375 -0.144531 0.0703125 -0.15625 0.03125 C -0.164062 -0.03125 -0.140625 -0.0664062 -0.078125 -0.078125 C 0.367188 -0.171875 0.78125 -0.320312 1.15625 -0.53125 C 1.53125 -0.738281 1.898438 -0.988281 2.265625 -1.28125 C 2.410156 -1.425781 2.570312 -1.609375 2.75 -1.828125 C 2.9375 -2.046875 3.113281 -2.28125 3.28125 -2.53125 C 3.457031 -2.78125 3.617188 -3.023438 3.765625 -3.265625 C 3.910156 -3.515625 4.007812 -3.75 4.0625 -3.96875 C 4.101562 -4.09375 4.144531 -4.210938 4.1875 -4.328125 C 4.226562 -4.441406 4.285156 -4.5625 4.359375 -4.6875 C 4.378906 -4.75 4.425781 -4.8125 4.5 -4.875 C 4.507812 -4.882812 4.53125 -4.894531 4.5625 -4.90625 C 4.625 -4.914062 4.675781 -4.898438 4.71875 -4.859375 C 4.769531 -4.816406 4.800781 -4.765625 4.8125 -4.703125 C 4.800781 -4.640625 4.789062 -4.578125 4.78125 -4.515625 C 4.78125 -4.453125 4.773438 -4.394531 4.765625 -4.34375 L 4.421875 -2.9375 C 4.390625 -2.820312 4.363281 -2.707031 4.34375 -2.59375 C 4.320312 -2.488281 4.3125 -2.375 4.3125 -2.25 C 4.300781 -1.988281 4.375 -1.773438 4.53125 -1.609375 C 4.695312 -1.441406 4.914062 -1.332031 5.1875 -1.28125 C 5.289062 -1.28125 5.414062 -1.289062 5.5625 -1.3125 C 5.707031 -1.332031 5.867188 -1.351562 6.046875 -1.375 Z M 6.046875 -1.375" transform="translate(17.238 32.78)"/></g></g></g><g><g><g><path d="M 6.46875 -7.671875 C 6.664062 -7.691406 6.832031 -7.65625 6.96875 -7.5625 C 7.113281 -7.476562 7.171875 -7.304688 7.140625 -7.046875 C 7.128906 -6.992188 7.113281 -6.925781 7.09375 -6.84375 C 7.070312 -6.769531 7.054688 -6.703125 7.046875 -6.640625 C 6.910156 -6.148438 6.753906 -5.707031 6.578125 -5.3125 C 6.410156 -4.925781 6.210938 -4.566406 5.984375 -4.234375 C 5.753906 -3.910156 5.503906 -3.59375 5.234375 -3.28125 C 4.960938 -2.96875 4.648438 -2.644531 4.296875 -2.3125 C 4.140625 -2.15625 4.03125 -1.992188 3.96875 -1.828125 C 3.84375 -1.296875 3.707031 -0.769531 3.5625 -0.25 C 3.425781 0.269531 3.316406 0.796875 3.234375 1.328125 C 3.160156 1.722656 3.113281 2.117188 3.09375 2.515625 C 3.070312 2.921875 3.078125 3.320312 3.109375 3.71875 C 3.128906 4.0625 3.1875 4.378906 3.28125 4.671875 C 3.3125 4.753906 3.351562 4.832031 3.40625 4.90625 C 3.457031 4.976562 3.53125 5.023438 3.625 5.046875 C 3.6875 5.054688 3.734375 5.054688 3.765625 5.046875 C 3.890625 5.015625 4 4.9375 4.09375 4.8125 C 4.1875 4.695312 4.257812 4.5625 4.3125 4.40625 C 4.375 4.25 4.425781 4.09375 4.46875 3.9375 C 4.519531 3.78125 4.550781 3.65625 4.5625 3.5625 C 4.65625 2.820312 4.726562 2.085938 4.78125 1.359375 C 4.84375 0.640625 4.804688 -0.0820312 4.671875 -0.8125 C 4.660156 -0.9375 4.628906 -1.0625 4.578125 -1.1875 C 4.535156 -1.320312 4.5 -1.445312 4.46875 -1.5625 C 4.445312 -1.601562 4.445312 -1.632812 4.46875 -1.65625 C 4.5 -1.6875 4.53125 -1.707031 4.5625 -1.71875 C 4.601562 -1.726562 4.628906 -1.726562 4.640625 -1.71875 C 4.691406 -1.707031 4.734375 -1.6875 4.765625 -1.65625 C 4.796875 -1.632812 4.828125 -1.601562 4.859375 -1.5625 C 4.941406 -1.539062 5.035156 -1.515625 5.140625 -1.484375 C 5.253906 -1.453125 5.410156 -1.429688 5.609375 -1.421875 C 5.804688 -1.421875 6.035156 -1.4375 6.296875 -1.46875 C 6.554688 -1.5 6.875 -1.550781 7.25 -1.625 C 7.320312 -1.644531 7.363281 -1.625 7.375 -1.5625 C 7.382812 -1.5 7.351562 -1.457031 7.28125 -1.4375 C 6.800781 -1.34375 6.40625 -1.28125 6.09375 -1.25 C 5.78125 -1.226562 5.523438 -1.226562 5.328125 -1.25 C 5.304688 -1.238281 5.285156 -1.234375 5.265625 -1.234375 C 5.253906 -1.234375 5.238281 -1.234375 5.21875 -1.234375 C 5.207031 -1.242188 5.191406 -1.242188 5.171875 -1.234375 C 5.109375 -1.222656 5.085938 -1.175781 5.109375 -1.09375 C 5.128906 -0.976562 5.148438 -0.878906 5.171875 -0.796875 C 5.203125 -0.710938 5.226562 -0.613281 5.25 -0.5 C 5.351562 -0.113281 5.40625 0.269531 5.40625 0.65625 C 5.40625 1.039062 5.382812 1.429688 5.34375 1.828125 C 5.320312 2.054688 5.300781 2.285156 5.28125 2.515625 C 5.257812 2.742188 5.234375 2.960938 5.203125 3.171875 C 5.140625 3.515625 5.054688 3.828125 4.953125 4.109375 C 4.859375 4.398438 4.710938 4.679688 4.515625 4.953125 C 4.441406 5.046875 4.363281 5.125 4.28125 5.1875 C 4.207031 5.257812 4.113281 5.3125 4 5.34375 C 3.945312 5.351562 3.878906 5.351562 3.796875 5.34375 C 3.429688 5.3125 3.171875 5.203125 3.015625 5.015625 C 2.859375 4.835938 2.734375 4.578125 2.640625 4.234375 C 2.585938 4.015625 2.554688 3.789062 2.546875 3.5625 C 2.535156 3.34375 2.523438 3.113281 2.515625 2.875 C 2.523438 2.445312 2.554688 2.03125 2.609375 1.625 C 2.671875 1.21875 2.742188 0.804688 2.828125 0.390625 C 2.878906 0.191406 2.925781 0.00390625 2.96875 -0.171875 C 3.019531 -0.347656 3.066406 -0.53125 3.109375 -0.71875 C 3.128906 -0.8125 3.15625 -0.90625 3.1875 -1 C 3.226562 -1.09375 3.238281 -1.195312 3.21875 -1.3125 C 2.226562 -0.613281 1.140625 -0.140625 -0.046875 0.109375 C -0.109375 0.117188 -0.144531 0.09375 -0.15625 0.03125 C -0.164062 -0.03125 -0.140625 -0.0664062 -0.078125 -0.078125 C 0.703125 -0.242188 1.445312 -0.515625 2.15625 -0.890625 C 2.3125 -0.992188 2.484375 -1.113281 2.671875 -1.25 C 2.859375 -1.382812 3.066406 -1.554688 3.296875 -1.765625 C 3.359375 -1.804688 3.410156 -1.898438 3.453125 -2.046875 C 3.492188 -2.191406 3.523438 -2.300781 3.546875 -2.375 C 3.796875 -3.175781 4.078125 -3.96875 4.390625 -4.75 C 4.703125 -5.539062 5.097656 -6.296875 5.578125 -7.015625 C 5.660156 -7.148438 5.785156 -7.285156 5.953125 -7.421875 C 6.128906 -7.554688 6.289062 -7.640625 6.4375 -7.671875 Z M 6.703125 -6.859375 C 6.722656 -6.941406 6.742188 -7.019531 6.765625 -7.09375 C 6.796875 -7.175781 6.78125 -7.265625 6.71875 -7.359375 C 6.6875 -7.378906 6.632812 -7.378906 6.5625 -7.359375 C 6.4375 -7.335938 6.296875 -7.234375 6.140625 -7.046875 C 5.992188 -6.859375 5.84375 -6.625 5.6875 -6.34375 C 5.53125 -6.070312 5.375 -5.773438 5.21875 -5.453125 C 5.070312 -5.128906 4.941406 -4.8125 4.828125 -4.5 C 4.710938 -4.1875 4.609375 -3.90625 4.515625 -3.65625 C 4.429688 -3.414062 4.382812 -3.234375 4.375 -3.109375 C 4.375 -3.085938 4.378906 -3.070312 4.390625 -3.0625 C 4.390625 -3.070312 4.410156 -3.066406 4.453125 -3.046875 L 4.53125 -3.109375 C 5.09375 -3.617188 5.546875 -4.1875 5.890625 -4.8125 C 6.234375 -5.4375 6.503906 -6.117188 6.703125 -6.859375 Z M 6.703125 -6.859375" transform="translate(22.3 31.709)"/></g></g></g><g><g><g><path d="M 7.75 -1.734375 C 7.8125 -1.753906 7.847656 -1.734375 7.859375 -1.671875 C 7.867188 -1.609375 7.84375 -1.566406 7.78125 -1.546875 C 5.925781 -1.160156 4.71875 -1.28125 4.15625 -1.90625 C 4.03125 -1.988281 3.941406 -2.117188 3.890625 -2.296875 C 3.835938 -2.296875 3.78125 -2.253906 3.71875 -2.171875 C 3.65625 -2.097656 3.5625 -1.988281 3.4375 -1.84375 C 3.101562 -1.476562 2.726562 -1.171875 2.3125 -0.921875 C 1.945312 -0.648438 1.566406 -0.429688 1.171875 -0.265625 C 0.785156 -0.109375 0.378906 0.015625 -0.046875 0.109375 C -0.109375 0.117188 -0.144531 0.09375 -0.15625 0.03125 C -0.164062 -0.03125 -0.140625 -0.0664062 -0.078125 -0.078125 C -0.078125 -0.078125 -0.0546875 -0.0820312 -0.015625 -0.09375 C 0.410156 -0.1875 0.8125 -0.316406 1.1875 -0.484375 C 1.570312 -0.660156 1.925781 -0.875 2.25 -1.125 C 2.582031 -1.375 2.875 -1.644531 3.125 -1.9375 C 3.382812 -2.238281 3.582031 -2.550781 3.71875 -2.875 C 3.738281 -2.9375 3.753906 -3 3.765625 -3.0625 C 3.773438 -3.132812 3.796875 -3.207031 3.828125 -3.28125 C 3.941406 -3.71875 4.128906 -4.082031 4.390625 -4.375 C 4.660156 -4.664062 5.019531 -4.878906 5.46875 -5.015625 C 5.632812 -5.046875 5.789062 -5.0625 5.9375 -5.0625 C 6.09375 -5.070312 6.25 -5.03125 6.40625 -4.9375 C 6.800781 -4.75 6.957031 -4.4375 6.875 -4 C 6.832031 -3.675781 6.679688 -3.40625 6.421875 -3.1875 C 6.171875 -2.96875 5.910156 -2.820312 5.640625 -2.75 L 5.359375 -2.6875 C 5.234375 -2.65625 5.109375 -2.632812 4.984375 -2.625 C 4.867188 -2.613281 4.75 -2.613281 4.625 -2.625 C 4.59375 -2.632812 4.554688 -2.632812 4.515625 -2.625 C 4.390625 -2.59375 4.363281 -2.492188 4.4375 -2.328125 C 4.550781 -2.066406 4.695312 -1.882812 4.875 -1.78125 C 5.050781 -1.6875 5.265625 -1.609375 5.515625 -1.546875 C 5.796875 -1.515625 6.113281 -1.507812 6.46875 -1.53125 C 6.832031 -1.5625 7.257812 -1.628906 7.75 -1.734375 Z M 4.4375 -3.359375 C 4.351562 -3.140625 4.34375 -3.003906 4.40625 -2.953125 C 4.476562 -2.898438 4.601562 -2.867188 4.78125 -2.859375 C 4.820312 -2.867188 4.878906 -2.878906 4.953125 -2.890625 C 5.128906 -2.929688 5.304688 -3.003906 5.484375 -3.109375 C 5.671875 -3.210938 5.84375 -3.332031 6 -3.46875 C 6.15625 -3.613281 6.273438 -3.769531 6.359375 -3.9375 C 6.441406 -4.113281 6.460938 -4.304688 6.421875 -4.515625 C 6.398438 -4.609375 6.351562 -4.675781 6.28125 -4.71875 C 6.207031 -4.769531 6.117188 -4.789062 6.015625 -4.78125 L 5.875 -4.75 C 5.789062 -4.738281 5.710938 -4.71875 5.640625 -4.6875 C 5.566406 -4.664062 5.488281 -4.628906 5.40625 -4.578125 C 5.164062 -4.441406 4.96875 -4.265625 4.8125 -4.046875 C 4.664062 -3.828125 4.539062 -3.597656 4.4375 -3.359375 Z M 4.4375 -3.359375" transform="translate(28.594 30.376)"/></g></g></g><g><g><g><path d="M 8.15625 -12.984375 C 8.457031 -12.910156 8.628906 -12.722656 8.671875 -12.421875 C 8.703125 -12.234375 8.691406 -11.988281 8.640625 -11.6875 C 8.597656 -11.382812 8.539062 -11.066406 8.46875 -10.734375 C 8.394531 -10.410156 8.304688 -10.097656 8.203125 -9.796875 C 8.109375 -9.503906 8.035156 -9.269531 7.984375 -9.09375 C 7.703125 -8.40625 7.414062 -7.71875 7.125 -7.03125 C 6.832031 -6.351562 6.472656 -5.71875 6.046875 -5.125 C 5.929688 -4.945312 5.878906 -4.757812 5.890625 -4.5625 C 5.898438 -4.3125 5.925781 -4.070312 5.96875 -3.84375 C 6.019531 -3.613281 6.097656 -3.382812 6.203125 -3.15625 C 6.328125 -2.894531 6.484375 -2.664062 6.671875 -2.46875 C 6.859375 -2.269531 7.082031 -2.101562 7.34375 -1.96875 C 7.375 -1.945312 7.40625 -1.925781 7.4375 -1.90625 C 7.476562 -1.882812 7.519531 -1.863281 7.5625 -1.84375 C 7.851562 -1.8125 8.164062 -1.828125 8.5 -1.890625 C 8.570312 -1.910156 8.613281 -1.890625 8.625 -1.828125 C 8.632812 -1.765625 8.601562 -1.722656 8.53125 -1.703125 C 7.769531 -1.546875 7.140625 -1.632812 6.640625 -1.96875 C 6.515625 -2.03125 6.390625 -2.125 6.265625 -2.25 C 6.148438 -2.375 6.035156 -2.515625 5.921875 -2.671875 C 5.816406 -2.828125 5.722656 -2.984375 5.640625 -3.140625 C 5.566406 -3.304688 5.515625 -3.457031 5.484375 -3.59375 C 5.421875 -3.769531 5.375 -3.878906 5.34375 -3.921875 C 5.03125 -3.503906 4.6875 -3.082031 4.3125 -2.65625 C 3.9375 -2.238281 3.519531 -1.84375 3.0625 -1.46875 C 2.613281 -1.101562 2.128906 -0.78125 1.609375 -0.5 C 1.097656 -0.21875 0.546875 -0.015625 -0.046875 0.109375 C -0.109375 0.117188 -0.144531 0.09375 -0.15625 0.03125 C -0.164062 -0.03125 -0.140625 -0.0664062 -0.078125 -0.078125 C 0.773438 -0.265625 1.554688 -0.601562 2.265625 -1.09375 C 2.972656 -1.59375 3.601562 -2.15625 4.15625 -2.78125 C 4.3125 -3 4.46875 -3.222656 4.625 -3.453125 C 4.78125 -3.691406 4.9375 -3.953125 5.09375 -4.234375 C 5.175781 -4.328125 5.222656 -4.414062 5.234375 -4.5 C 5.253906 -4.59375 5.257812 -4.71875 5.25 -4.875 C 5.238281 -5.03125 5.222656 -5.222656 5.203125 -5.453125 C 5.191406 -5.691406 5.1875 -5.992188 5.1875 -6.359375 C 5.175781 -6.984375 5.222656 -7.59375 5.328125 -8.1875 C 5.429688 -8.78125 5.566406 -9.375 5.734375 -9.96875 C 5.804688 -10.1875 5.898438 -10.457031 6.015625 -10.78125 C 6.128906 -11.101562 6.265625 -11.421875 6.421875 -11.734375 C 6.578125 -12.046875 6.757812 -12.320312 6.96875 -12.5625 C 7.175781 -12.8125 7.410156 -12.960938 7.671875 -13.015625 C 7.835938 -13.054688 8 -13.046875 8.15625 -12.984375 Z M 8.203125 -11.75 C 8.203125 -11.832031 8.203125 -11.921875 8.203125 -12.015625 C 8.203125 -12.109375 8.203125 -12.195312 8.203125 -12.28125 C 8.171875 -12.34375 8.148438 -12.394531 8.140625 -12.4375 C 8.128906 -12.476562 8.109375 -12.519531 8.078125 -12.5625 C 8.035156 -12.664062 7.96875 -12.707031 7.875 -12.6875 C 7.832031 -12.675781 7.800781 -12.664062 7.78125 -12.65625 C 7.71875 -12.570312 7.648438 -12.5 7.578125 -12.4375 C 7.515625 -12.375 7.460938 -12.304688 7.421875 -12.234375 C 7.210938 -11.921875 7.019531 -11.546875 6.84375 -11.109375 C 6.675781 -10.679688 6.53125 -10.238281 6.40625 -9.78125 C 6.289062 -9.332031 6.191406 -8.882812 6.109375 -8.4375 C 6.023438 -7.988281 5.957031 -7.566406 5.90625 -7.171875 C 5.882812 -6.984375 5.875 -6.796875 5.875 -6.609375 C 5.875 -6.421875 5.867188 -6.234375 5.859375 -6.046875 C 5.847656 -6.003906 5.847656 -5.96875 5.859375 -5.9375 C 5.878906 -5.90625 5.894531 -5.867188 5.90625 -5.828125 C 5.90625 -5.804688 5.914062 -5.796875 5.9375 -5.796875 C 5.976562 -5.773438 5.992188 -5.78125 5.984375 -5.8125 C 6.046875 -5.894531 6.101562 -5.972656 6.15625 -6.046875 C 6.207031 -6.117188 6.257812 -6.203125 6.3125 -6.296875 C 6.550781 -6.742188 6.765625 -7.195312 6.953125 -7.65625 C 7.140625 -8.125 7.320312 -8.585938 7.5 -9.046875 C 7.675781 -9.472656 7.828125 -9.910156 7.953125 -10.359375 C 8.078125 -10.816406 8.160156 -11.28125 8.203125 -11.75 Z M 8.203125 -11.75" transform="translate(35.371 28.94)"/></g></g></g><g><g><g><path d="M 8.734375 -1.953125 C 8.796875 -1.960938 8.832031 -1.9375 8.84375 -1.875 C 8.851562 -1.8125 8.828125 -1.773438 8.765625 -1.765625 C 8.503906 -1.703125 8.25 -1.664062 8 -1.65625 C 7.757812 -1.65625 7.519531 -1.671875 7.28125 -1.703125 C 6.894531 -1.722656 6.519531 -1.820312 6.15625 -2 C 6.039062 -2.070312 5.929688 -2.117188 5.828125 -2.140625 C 5.734375 -2.171875 5.613281 -2.175781 5.46875 -2.15625 C 5.050781 -2.070312 4.65625 -2.171875 4.28125 -2.453125 C 4.226562 -2.492188 4.191406 -2.515625 4.171875 -2.515625 C 4.128906 -2.503906 4.085938 -2.472656 4.046875 -2.421875 C 3.804688 -2.066406 3.535156 -1.753906 3.234375 -1.484375 C 2.941406 -1.222656 2.617188 -0.988281 2.265625 -0.78125 C 1.921875 -0.570312 1.554688 -0.394531 1.171875 -0.25 C 0.785156 -0.101562 0.398438 0.0078125 0.015625 0.09375 C -0.015625 0.101562 -0.046875 0.109375 -0.078125 0.109375 C -0.117188 0.109375 -0.144531 0.0820312 -0.15625 0.03125 C -0.164062 -0.03125 -0.140625 -0.0664062 -0.078125 -0.078125 C 0.328125 -0.160156 0.738281 -0.285156 1.15625 -0.453125 C 1.570312 -0.628906 1.96875 -0.847656 2.34375 -1.109375 C 2.507812 -1.234375 2.664062 -1.378906 2.8125 -1.546875 C 2.96875 -1.710938 3.128906 -1.910156 3.296875 -2.140625 C 3.484375 -2.390625 3.632812 -2.597656 3.75 -2.765625 C 3.863281 -2.929688 3.953125 -3.066406 4.015625 -3.171875 C 4.078125 -3.285156 4.125 -3.363281 4.15625 -3.40625 C 4.195312 -3.445312 4.25 -3.484375 4.3125 -3.515625 C 4.332031 -3.523438 4.367188 -3.535156 4.421875 -3.546875 C 4.515625 -3.566406 4.582031 -3.566406 4.625 -3.546875 C 4.675781 -3.492188 4.703125 -3.421875 4.703125 -3.328125 C 4.679688 -3.171875 4.660156 -3.054688 4.640625 -2.984375 C 4.628906 -2.921875 4.640625 -2.832031 4.671875 -2.71875 C 4.703125 -2.550781 4.773438 -2.457031 4.890625 -2.4375 C 5.015625 -2.414062 5.144531 -2.40625 5.28125 -2.40625 C 5.289062 -2.40625 5.300781 -2.414062 5.3125 -2.4375 C 5.320312 -2.46875 5.328125 -2.492188 5.328125 -2.515625 C 5.285156 -2.566406 5.238281 -2.617188 5.1875 -2.671875 C 5.144531 -2.722656 5.109375 -2.78125 5.078125 -2.84375 C 4.953125 -3.03125 4.875 -3.226562 4.84375 -3.4375 C 4.8125 -3.65625 4.820312 -3.863281 4.875 -4.0625 C 4.925781 -4.269531 5.015625 -4.46875 5.140625 -4.65625 C 5.265625 -4.84375 5.421875 -4.988281 5.609375 -5.09375 C 5.734375 -5.144531 5.859375 -5.1875 5.984375 -5.21875 C 6.398438 -5.300781 6.75 -5.179688 7.03125 -4.859375 C 7.238281 -4.640625 7.328125 -4.382812 7.296875 -4.09375 C 7.242188 -3.800781 7.160156 -3.523438 7.046875 -3.265625 C 6.941406 -3.003906 6.757812 -2.773438 6.5 -2.578125 C 6.476562 -2.546875 6.445312 -2.515625 6.40625 -2.484375 C 6.375 -2.460938 6.347656 -2.445312 6.328125 -2.4375 C 6.285156 -2.40625 6.269531 -2.367188 6.28125 -2.328125 C 6.289062 -2.296875 6.316406 -2.269531 6.359375 -2.25 C 6.429688 -2.207031 6.492188 -2.171875 6.546875 -2.140625 C 6.597656 -2.109375 6.65625 -2.070312 6.71875 -2.03125 C 7.332031 -1.84375 8.003906 -1.816406 8.734375 -1.953125 Z M 5.5 -3.328125 C 5.507812 -3.140625 5.578125 -2.960938 5.703125 -2.796875 C 5.742188 -2.734375 5.804688 -2.710938 5.890625 -2.734375 C 5.910156 -2.734375 5.9375 -2.75 5.96875 -2.78125 C 6.34375 -3.207031 6.570312 -3.707031 6.65625 -4.28125 C 6.664062 -4.351562 6.664062 -4.421875 6.65625 -4.484375 C 6.65625 -4.554688 6.660156 -4.625 6.671875 -4.6875 C 6.640625 -4.707031 6.617188 -4.734375 6.609375 -4.765625 C 6.609375 -4.796875 6.597656 -4.828125 6.578125 -4.859375 C 6.546875 -4.921875 6.5 -4.953125 6.4375 -4.953125 C 6.382812 -4.960938 6.328125 -4.960938 6.265625 -4.953125 C 6.066406 -4.859375 5.894531 -4.703125 5.75 -4.484375 C 5.550781 -4.128906 5.46875 -3.742188 5.5 -3.328125 Z M 5.5 -3.328125" transform="translate(42.865 27.353)"/></g></g></g><g><g><g><path d="M 8.5 -1.890625 C 8.5625 -1.910156 8.597656 -1.890625 8.609375 -1.828125 C 8.617188 -1.765625 8.59375 -1.722656 8.53125 -1.703125 C 7.675781 -1.523438 7.101562 -1.585938 6.8125 -1.890625 C 6.800781 -1.898438 6.789062 -1.910156 6.78125 -1.921875 C 6.769531 -1.941406 6.757812 -1.960938 6.75 -1.984375 C 6.613281 -2.078125 6.507812 -2.1875 6.4375 -2.3125 C 6.363281 -2.445312 6.320312 -2.613281 6.3125 -2.8125 C 6.3125 -2.988281 6.328125 -3.179688 6.359375 -3.390625 C 6.390625 -3.609375 6.421875 -3.8125 6.453125 -4 C 6.484375 -4.1875 6.503906 -4.347656 6.515625 -4.484375 C 6.535156 -4.628906 6.519531 -4.726562 6.46875 -4.78125 C 6.445312 -4.8125 6.414062 -4.820312 6.375 -4.8125 C 6.320312 -4.800781 6.285156 -4.773438 6.265625 -4.734375 C 5.929688 -4.484375 5.660156 -4.195312 5.453125 -3.875 C 5.242188 -3.5625 5.066406 -3.207031 4.921875 -2.8125 C 4.867188 -2.707031 4.820312 -2.597656 4.78125 -2.484375 C 4.738281 -2.378906 4.691406 -2.257812 4.640625 -2.125 C 4.597656 -2.019531 4.523438 -1.957031 4.421875 -1.9375 C 4.390625 -1.925781 4.34375 -1.925781 4.28125 -1.9375 C 4.113281 -1.957031 4.035156 -2.035156 4.046875 -2.171875 C 4.046875 -2.253906 4.039062 -2.332031 4.03125 -2.40625 C 4.03125 -2.476562 4.035156 -2.554688 4.046875 -2.640625 C 3.992188 -2.628906 3.957031 -2.613281 3.9375 -2.59375 C 3.6875 -2.28125 3.410156 -1.976562 3.109375 -1.6875 C 2.804688 -1.394531 2.484375 -1.128906 2.140625 -0.890625 C 1.804688 -0.660156 1.453125 -0.457031 1.078125 -0.28125 C 0.703125 -0.101562 0.328125 0.0234375 -0.046875 0.109375 C -0.109375 0.117188 -0.144531 0.09375 -0.15625 0.03125 C -0.164062 -0.03125 -0.140625 -0.0664062 -0.078125 -0.078125 C 0.367188 -0.171875 0.820312 -0.34375 1.28125 -0.59375 C 1.914062 -1 2.488281 -1.488281 3 -2.0625 C 3.507812 -2.644531 3.960938 -3.257812 4.359375 -3.90625 C 4.441406 -4.007812 4.5 -4.113281 4.53125 -4.21875 C 4.5625 -4.332031 4.601562 -4.441406 4.65625 -4.546875 C 4.71875 -4.703125 4.796875 -4.847656 4.890625 -4.984375 C 4.898438 -5.003906 4.925781 -5.019531 4.96875 -5.03125 C 5.019531 -5.039062 5.09375 -5.035156 5.1875 -5.015625 C 5.257812 -4.972656 5.296875 -4.910156 5.296875 -4.828125 C 5.296875 -4.742188 5.285156 -4.660156 5.265625 -4.578125 C 5.253906 -4.503906 5.25 -4.429688 5.25 -4.359375 C 5.238281 -4.335938 5.25 -4.304688 5.28125 -4.265625 L 5.3125 -4.28125 C 5.332031 -4.289062 5.34375 -4.296875 5.34375 -4.296875 C 5.382812 -4.347656 5.429688 -4.398438 5.484375 -4.453125 C 5.535156 -4.515625 5.585938 -4.570312 5.640625 -4.625 C 5.710938 -4.695312 5.78125 -4.757812 5.84375 -4.8125 C 5.914062 -4.863281 5.988281 -4.921875 6.0625 -4.984375 C 6.15625 -5.054688 6.25 -5.101562 6.34375 -5.125 C 6.445312 -5.144531 6.554688 -5.15625 6.671875 -5.15625 C 6.796875 -5.164062 6.894531 -5.117188 6.96875 -5.015625 C 7.019531 -4.960938 7.050781 -4.914062 7.0625 -4.875 C 7.082031 -4.832031 7.097656 -4.796875 7.109375 -4.765625 C 7.117188 -4.742188 7.125 -4.707031 7.125 -4.65625 C 7.144531 -4.53125 7.148438 -4.414062 7.140625 -4.3125 C 7.128906 -4.21875 7.113281 -4.101562 7.09375 -3.96875 C 7.082031 -3.84375 7.0625 -3.679688 7.03125 -3.484375 C 7.007812 -3.285156 6.976562 -3.019531 6.9375 -2.6875 C 6.925781 -2.582031 6.941406 -2.476562 6.984375 -2.375 C 7.035156 -2.28125 7.109375 -2.191406 7.203125 -2.109375 C 7.296875 -2.035156 7.40625 -1.972656 7.53125 -1.921875 C 7.65625 -1.867188 7.78125 -1.835938 7.90625 -1.828125 C 8.0625 -1.828125 8.257812 -1.847656 8.5 -1.890625 Z M 8.5 -1.890625" transform="translate(50.623 25.71)"/></g></g></g><g><g><g><path d="M 8.5625 -1.90625 C 8.644531 -1.925781 8.679688 -1.898438 8.671875 -1.828125 C 8.679688 -1.765625 8.65625 -1.726562 8.59375 -1.71875 C 8.03125 -1.601562 7.597656 -1.617188 7.296875 -1.765625 C 7.203125 -1.804688 7.117188 -1.851562 7.046875 -1.90625 C 6.972656 -1.96875 6.910156 -2.039062 6.859375 -2.125 C 6.835938 -2.1875 6.800781 -2.210938 6.75 -2.203125 C 6.726562 -2.191406 6.695312 -2.171875 6.65625 -2.140625 C 6.5625 -2.066406 6.484375 -2.007812 6.421875 -1.96875 C 6.367188 -1.925781 6.3125 -1.820312 6.25 -1.65625 C 6.1875 -1.488281 6.101562 -1.210938 6 -0.828125 C 5.90625 -0.441406 5.769531 0.128906 5.59375 0.890625 C 5.46875 1.316406 5.347656 1.75 5.234375 2.1875 C 5.117188 2.625 4.972656 3.050781 4.796875 3.46875 C 4.703125 3.695312 4.59375 3.9375 4.46875 4.1875 C 4.351562 4.4375 4.222656 4.660156 4.078125 4.859375 C 3.941406 5.054688 3.789062 5.222656 3.625 5.359375 C 3.46875 5.503906 3.273438 5.601562 3.046875 5.65625 C 2.867188 5.695312 2.679688 5.703125 2.484375 5.671875 C 2.046875 5.585938 1.785156 5.320312 1.703125 4.875 C 1.660156 4.695312 1.660156 4.425781 1.703125 4.0625 C 1.753906 3.695312 1.878906 3.257812 2.078125 2.75 C 2.273438 2.238281 2.566406 1.675781 2.953125 1.0625 C 3.347656 0.457031 3.875 -0.164062 4.53125 -0.8125 C 4.78125 -1.0625 4.984375 -1.253906 5.140625 -1.390625 C 5.304688 -1.523438 5.4375 -1.640625 5.53125 -1.734375 C 5.632812 -1.835938 5.707031 -1.929688 5.75 -2.015625 C 5.800781 -2.097656 5.835938 -2.207031 5.859375 -2.34375 C 5.867188 -2.363281 5.863281 -2.378906 5.84375 -2.390625 C 5.8125 -2.410156 5.773438 -2.414062 5.734375 -2.40625 C 5.703125 -2.382812 5.65625 -2.359375 5.59375 -2.328125 C 5.53125 -2.304688 5.476562 -2.285156 5.4375 -2.265625 C 5.351562 -2.222656 5.273438 -2.1875 5.203125 -2.15625 C 5.140625 -2.132812 5.078125 -2.117188 5.015625 -2.109375 C 4.585938 -2.015625 4.1875 -2.125 3.8125 -2.4375 C 3.75 -2.5 3.703125 -2.53125 3.671875 -2.53125 C 3.648438 -2.519531 3.640625 -2.507812 3.640625 -2.5 C 3.441406 -2.1875 3.195312 -1.882812 2.90625 -1.59375 C 2.613281 -1.3125 2.304688 -1.054688 1.984375 -0.828125 C 1.660156 -0.597656 1.328125 -0.398438 0.984375 -0.234375 C 0.640625 -0.078125 0.3125 0.03125 0 0.09375 C -0.03125 0.101562 -0.0625 0.101562 -0.09375 0.09375 C -0.125 0.09375 -0.144531 0.0703125 -0.15625 0.03125 C -0.164062 -0.03125 -0.140625 -0.0664062 -0.078125 -0.078125 C 0.203125 -0.140625 0.472656 -0.226562 0.734375 -0.34375 C 0.992188 -0.46875 1.25 -0.601562 1.5 -0.75 C 1.738281 -0.925781 1.9375 -1.085938 2.09375 -1.234375 C 2.25 -1.378906 2.394531 -1.53125 2.53125 -1.6875 C 2.675781 -1.84375 2.8125 -2.007812 2.9375 -2.1875 C 3.0625 -2.363281 3.207031 -2.582031 3.375 -2.84375 C 3.425781 -2.9375 3.476562 -3.03125 3.53125 -3.125 C 3.582031 -3.21875 3.628906 -3.304688 3.671875 -3.390625 C 3.828125 -3.753906 4.0625 -4.085938 4.375 -4.390625 C 4.695312 -4.691406 5.050781 -4.882812 5.4375 -4.96875 C 5.738281 -5.03125 6.023438 -4.992188 6.296875 -4.859375 C 6.335938 -4.847656 6.390625 -4.820312 6.453125 -4.78125 C 6.472656 -4.738281 6.484375 -4.707031 6.484375 -4.6875 C 6.484375 -4.664062 6.472656 -4.648438 6.453125 -4.640625 C 6.441406 -4.640625 6.425781 -4.632812 6.40625 -4.625 C 6.40625 -4.625 6.382812 -4.617188 6.34375 -4.609375 C 6.226562 -4.640625 6.117188 -4.65625 6.015625 -4.65625 C 5.910156 -4.664062 5.8125 -4.660156 5.71875 -4.640625 C 5.570312 -4.609375 5.425781 -4.550781 5.28125 -4.46875 C 5.144531 -4.394531 5.007812 -4.300781 4.875 -4.1875 C 4.75 -4.082031 4.628906 -3.960938 4.515625 -3.828125 C 4.410156 -3.691406 4.320312 -3.566406 4.25 -3.453125 C 4.15625 -3.285156 4.109375 -3.113281 4.109375 -2.9375 C 4.097656 -2.738281 4.144531 -2.582031 4.25 -2.46875 C 4.363281 -2.351562 4.523438 -2.3125 4.734375 -2.34375 C 5.128906 -2.425781 5.460938 -2.59375 5.734375 -2.84375 C 6.003906 -3.101562 6.203125 -3.429688 6.328125 -3.828125 C 6.335938 -3.859375 6.351562 -3.910156 6.375 -3.984375 C 6.40625 -4.066406 6.4375 -4.148438 6.46875 -4.234375 C 6.507812 -4.316406 6.550781 -4.390625 6.59375 -4.453125 C 6.644531 -4.523438 6.691406 -4.566406 6.734375 -4.578125 C 6.785156 -4.585938 6.832031 -4.582031 6.875 -4.5625 C 6.914062 -4.519531 6.941406 -4.488281 6.953125 -4.46875 C 6.960938 -4.445312 6.953125 -4.375 6.921875 -4.25 C 6.898438 -4.132812 6.851562 -3.953125 6.78125 -3.703125 C 6.707031 -3.460938 6.609375 -3.117188 6.484375 -2.671875 C 6.472656 -2.648438 6.46875 -2.625 6.46875 -2.59375 C 6.476562 -2.570312 6.5 -2.5625 6.53125 -2.5625 C 6.5625 -2.53125 6.59375 -2.53125 6.625 -2.5625 C 6.675781 -2.582031 6.726562 -2.609375 6.78125 -2.640625 C 6.832031 -2.679688 6.882812 -2.707031 6.9375 -2.71875 C 7 -2.738281 7.0625 -2.726562 7.125 -2.6875 C 7.207031 -2.644531 7.242188 -2.582031 7.234375 -2.5 C 7.222656 -2.414062 7.222656 -2.335938 7.234375 -2.265625 C 7.265625 -2.128906 7.328125 -2.023438 7.421875 -1.953125 C 7.660156 -1.835938 8.039062 -1.820312 8.5625 -1.90625 Z M 5.40625 -0.546875 C 5.414062 -0.640625 5.4375 -0.726562 5.46875 -0.8125 C 5.507812 -0.90625 5.515625 -1.007812 5.484375 -1.125 C 5.484375 -1.15625 5.398438 -1.109375 5.234375 -0.984375 C 5.078125 -0.859375 4.878906 -0.671875 4.640625 -0.421875 C 4.398438 -0.179688 4.140625 0.113281 3.859375 0.46875 C 3.578125 0.820312 3.3125 1.207031 3.0625 1.625 C 2.8125 2.039062 2.597656 2.484375 2.421875 2.953125 C 2.242188 3.429688 2.132812 3.914062 2.09375 4.40625 C 2.09375 4.488281 2.097656 4.570312 2.109375 4.65625 C 2.117188 4.738281 2.117188 4.8125 2.109375 4.875 C 2.117188 4.925781 2.132812 4.976562 2.15625 5.03125 C 2.175781 5.09375 2.203125 5.148438 2.234375 5.203125 C 2.265625 5.265625 2.316406 5.3125 2.390625 5.34375 C 2.460938 5.375 2.550781 5.382812 2.65625 5.375 C 2.800781 5.34375 2.925781 5.304688 3.03125 5.265625 C 3.132812 5.222656 3.234375 5.144531 3.328125 5.03125 C 3.503906 4.8125 3.664062 4.5625 3.8125 4.28125 C 3.96875 4 4.109375 3.703125 4.234375 3.390625 C 4.359375 3.085938 4.46875 2.773438 4.5625 2.453125 C 4.65625 2.140625 4.75 1.832031 4.84375 1.53125 C 4.945312 1.1875 5.039062 0.84375 5.125 0.5 C 5.207031 0.15625 5.300781 -0.191406 5.40625 -0.546875 Z M 5.40625 -0.546875" transform="translate(58.132 24.12)"/></g></g></g><g><g><g><path d="M 8.15625 -12.984375 C 8.457031 -12.910156 8.628906 -12.722656 8.671875 -12.421875 C 8.703125 -12.234375 8.691406 -11.988281 8.640625 -11.6875 C 8.597656 -11.382812 8.539062 -11.066406 8.46875 -10.734375 C 8.394531 -10.410156 8.304688 -10.097656 8.203125 -9.796875 C 8.109375 -9.503906 8.035156 -9.269531 7.984375 -9.09375 C 7.703125 -8.40625 7.414062 -7.71875 7.125 -7.03125 C 6.832031 -6.351562 6.472656 -5.71875 6.046875 -5.125 C 5.929688 -4.945312 5.878906 -4.757812 5.890625 -4.5625 C 5.898438 -4.3125 5.925781 -4.070312 5.96875 -3.84375 C 6.019531 -3.613281 6.097656 -3.382812 6.203125 -3.15625 C 6.328125 -2.894531 6.484375 -2.664062 6.671875 -2.46875 C 6.859375 -2.269531 7.082031 -2.101562 7.34375 -1.96875 C 7.375 -1.945312 7.40625 -1.925781 7.4375 -1.90625 C 7.476562 -1.882812 7.519531 -1.863281 7.5625 -1.84375 C 7.851562 -1.8125 8.164062 -1.828125 8.5 -1.890625 C 8.570312 -1.910156 8.613281 -1.890625 8.625 -1.828125 C 8.632812 -1.765625 8.601562 -1.722656 8.53125 -1.703125 C 7.769531 -1.546875 7.140625 -1.632812 6.640625 -1.96875 C 6.515625 -2.03125 6.390625 -2.125 6.265625 -2.25 C 6.148438 -2.375 6.035156 -2.515625 5.921875 -2.671875 C 5.816406 -2.828125 5.722656 -2.984375 5.640625 -3.140625 C 5.566406 -3.304688 5.515625 -3.457031 5.484375 -3.59375 C 5.421875 -3.769531 5.375 -3.878906 5.34375 -3.921875 C 5.03125 -3.503906 4.6875 -3.082031 4.3125 -2.65625 C 3.9375 -2.238281 3.519531 -1.84375 3.0625 -1.46875 C 2.613281 -1.101562 2.128906 -0.78125 1.609375 -0.5 C 1.097656 -0.21875 0.546875 -0.015625 -0.046875 0.109375 C -0.109375 0.117188 -0.144531 0.09375 -0.15625 0.03125 C -0.164062 -0.03125 -0.140625 -0.0664062 -0.078125 -0.078125 C 0.773438 -0.265625 1.554688 -0.601562 2.265625 -1.09375 C 2.972656 -1.59375 3.601562 -2.15625 4.15625 -2.78125 C 4.3125 -3 4.46875 -3.222656 4.625 -3.453125 C 4.78125 -3.691406 4.9375 -3.953125 5.09375 -4.234375 C 5.175781 -4.328125 5.222656 -4.414062 5.234375 -4.5 C 5.253906 -4.59375 5.257812 -4.71875 5.25 -4.875 C 5.238281 -5.03125 5.222656 -5.222656 5.203125 -5.453125 C 5.191406 -5.691406 5.1875 -5.992188 5.1875 -6.359375 C 5.175781 -6.984375 5.222656 -7.59375 5.328125 -8.1875 C 5.429688 -8.78125 5.566406 -9.375 5.734375 -9.96875 C 5.804688 -10.1875 5.898438 -10.457031 6.015625 -10.78125 C 6.128906 -11.101562 6.265625 -11.421875 6.421875 -11.734375 C 6.578125 -12.046875 6.757812 -12.320312 6.96875 -12.5625 C 7.175781 -12.8125 7.410156 -12.960938 7.671875 -13.015625 C 7.835938 -13.054688 8 -13.046875 8.15625 -12.984375 Z M 8.203125 -11.75 C 8.203125 -11.832031 8.203125 -11.921875 8.203125 -12.015625 C 8.203125 -12.109375 8.203125 -12.195312 8.203125 -12.28125 C 8.171875 -12.34375 8.148438 -12.394531 8.140625 -12.4375 C 8.128906 -12.476562 8.109375 -12.519531 8.078125 -12.5625 C 8.035156 -12.664062 7.96875 -12.707031 7.875 -12.6875 C 7.832031 -12.675781 7.800781 -12.664062 7.78125 -12.65625 C 7.71875 -12.570312 7.648438 -12.5 7.578125 -12.4375 C 7.515625 -12.375 7.460938 -12.304688 7.421875 -12.234375 C 7.210938 -11.921875 7.019531 -11.546875 6.84375 -11.109375 C 6.675781 -10.679688 6.53125 -10.238281 6.40625 -9.78125 C 6.289062 -9.332031 6.191406 -8.882812 6.109375 -8.4375 C 6.023438 -7.988281 5.957031 -7.566406 5.90625 -7.171875 C 5.882812 -6.984375 5.875 -6.796875 5.875 -6.609375 C 5.875 -6.421875 5.867188 -6.234375 5.859375 -6.046875 C 5.847656 -6.003906 5.847656 -5.96875 5.859375 -5.9375 C 5.878906 -5.90625 5.894531 -5.867188 5.90625 -5.828125 C 5.90625 -5.804688 5.914062 -5.796875 5.9375 -5.796875 C 5.976562 -5.773438 5.992188 -5.78125 5.984375 -5.8125 C 6.046875 -5.894531 6.101562 -5.972656 6.15625 -6.046875 C 6.207031 -6.117188 6.257812 -6.203125 6.3125 -6.296875 C 6.550781 -6.742188 6.765625 -7.195312 6.953125 -7.65625 C 7.140625 -8.125 7.320312 -8.585938 7.5 -9.046875 C 7.675781 -9.472656 7.828125 -9.910156 7.953125 -10.359375 C 8.078125 -10.816406 8.160156 -11.28125 8.203125 -11.75 Z M 8.203125 -11.75" transform="translate(15.552 46.048)"/></g></g></g><g><g><g><path d="M 7.75 -1.734375 C 7.8125 -1.753906 7.847656 -1.734375 7.859375 -1.671875 C 7.867188 -1.609375 7.84375 -1.566406 7.78125 -1.546875 C 5.925781 -1.160156 4.71875 -1.28125 4.15625 -1.90625 C 4.03125 -1.988281 3.941406 -2.117188 3.890625 -2.296875 C 3.835938 -2.296875 3.78125 -2.253906 3.71875 -2.171875 C 3.65625 -2.097656 3.5625 -1.988281 3.4375 -1.84375 C 3.101562 -1.476562 2.726562 -1.171875 2.3125 -0.921875 C 1.945312 -0.648438 1.566406 -0.429688 1.171875 -0.265625 C 0.785156 -0.109375 0.378906 0.015625 -0.046875 0.109375 C -0.109375 0.117188 -0.144531 0.09375 -0.15625 0.03125 C -0.164062 -0.03125 -0.140625 -0.0664062 -0.078125 -0.078125 C -0.078125 -0.078125 -0.0546875 -0.0820312 -0.015625 -0.09375 C 0.410156 -0.1875 0.8125 -0.316406 1.1875 -0.484375 C 1.570312 -0.660156 1.925781 -0.875 2.25 -1.125 C 2.582031 -1.375 2.875 -1.644531 3.125 -1.9375 C 3.382812 -2.238281 3.582031 -2.550781 3.71875 -2.875 C 3.738281 -2.9375 3.753906 -3 3.765625 -3.0625 C 3.773438 -3.132812 3.796875 -3.207031 3.828125 -3.28125 C 3.941406 -3.71875 4.128906 -4.082031 4.390625 -4.375 C 4.660156 -4.664062 5.019531 -4.878906 5.46875 -5.015625 C 5.632812 -5.046875 5.789062 -5.0625 5.9375 -5.0625 C 6.09375 -5.070312 6.25 -5.03125 6.40625 -4.9375 C 6.800781 -4.75 6.957031 -4.4375 6.875 -4 C 6.832031 -3.675781 6.679688 -3.40625 6.421875 -3.1875 C 6.171875 -2.96875 5.910156 -2.820312 5.640625 -2.75 L 5.359375 -2.6875 C 5.234375 -2.65625 5.109375 -2.632812 4.984375 -2.625 C 4.867188 -2.613281 4.75 -2.613281 4.625 -2.625 C 4.59375 -2.632812 4.554688 -2.632812 4.515625 -2.625 C 4.390625 -2.59375 4.363281 -2.492188 4.4375 -2.328125 C 4.550781 -2.066406 4.695312 -1.882812 4.875 -1.78125 C 5.050781 -1.6875 5.265625 -1.609375 5.515625 -1.546875 C 5.796875 -1.515625 6.113281 -1.507812 6.46875 -1.53125 C 6.832031 -1.5625 7.257812 -1.628906 7.75 -1.734375 Z M 4.4375 -3.359375 C 4.351562 -3.140625 4.34375 -3.003906 4.40625 -2.953125 C 4.476562 -2.898438 4.601562 -2.867188 4.78125 -2.859375 C 4.820312 -2.867188 4.878906 -2.878906 4.953125 -2.890625 C 5.128906 -2.929688 5.304688 -3.003906 5.484375 -3.109375 C 5.671875 -3.210938 5.84375 -3.332031 6 -3.46875 C 6.15625 -3.613281 6.273438 -3.769531 6.359375 -3.9375 C 6.441406 -4.113281 6.460938 -4.304688 6.421875 -4.515625 C 6.398438 -4.609375 6.351562 -4.675781 6.28125 -4.71875 C 6.207031 -4.769531 6.117188 -4.789062 6.015625 -4.78125 L 5.875 -4.75 C 5.789062 -4.738281 5.710938 -4.71875 5.640625 -4.6875 C 5.566406 -4.664062 5.488281 -4.628906 5.40625 -4.578125 C 5.164062 -4.441406 4.96875 -4.265625 4.8125 -4.046875 C 4.664062 -3.828125 4.539062 -3.597656 4.4375 -3.359375 Z M 4.4375 -3.359375" transform="translate(23.046 44.46)"/></g></g></g><g><g><g><path d="M 8.703125 -1.9375 C 8.765625 -1.957031 8.800781 -1.9375 8.8125 -1.875 C 8.820312 -1.8125 8.796875 -1.769531 8.734375 -1.75 C 8.515625 -1.707031 8.296875 -1.6875 8.078125 -1.6875 C 7.859375 -1.6875 7.648438 -1.71875 7.453125 -1.78125 C 7.265625 -1.851562 7.097656 -1.960938 6.953125 -2.109375 C 6.804688 -2.253906 6.695312 -2.441406 6.625 -2.671875 C 6.625 -2.691406 6.617188 -2.707031 6.609375 -2.71875 C 6.609375 -2.726562 6.601562 -2.742188 6.59375 -2.765625 C 6.570312 -2.828125 6.539062 -2.878906 6.5 -2.921875 C 6.46875 -2.941406 6.445312 -2.957031 6.4375 -2.96875 C 6.425781 -2.988281 6.410156 -2.992188 6.390625 -2.984375 C 6.378906 -2.984375 6.367188 -2.976562 6.359375 -2.96875 C 6.304688 -2.914062 6.257812 -2.863281 6.21875 -2.8125 C 6.175781 -2.769531 6.132812 -2.734375 6.09375 -2.703125 C 5.945312 -2.585938 5.796875 -2.472656 5.640625 -2.359375 C 5.484375 -2.253906 5.316406 -2.1875 5.140625 -2.15625 C 4.796875 -2.082031 4.46875 -2.164062 4.15625 -2.40625 C 4.144531 -2.414062 4.128906 -2.425781 4.109375 -2.4375 C 4.097656 -2.445312 4.085938 -2.460938 4.078125 -2.484375 C 4.003906 -2.503906 3.953125 -2.515625 3.921875 -2.515625 C 3.898438 -2.503906 3.878906 -2.484375 3.859375 -2.453125 C 3.398438 -1.898438 2.894531 -1.394531 2.34375 -0.9375 C 1.800781 -0.476562 1.164062 -0.171875 0.4375 -0.015625 C 0.351562 0.015625 0.273438 0.0351562 0.203125 0.046875 C 0.140625 0.0664062 0.0703125 0.0820312 0 0.09375 C -0.03125 0.101562 -0.0625 0.101562 -0.09375 0.09375 C -0.125 0.09375 -0.144531 0.0703125 -0.15625 0.03125 C -0.164062 -0.03125 -0.140625 -0.0664062 -0.078125 -0.078125 C -0.015625 -0.0859375 0.046875 -0.101562 0.109375 -0.125 C 0.179688 -0.144531 0.242188 -0.164062 0.296875 -0.1875 C 1.003906 -0.425781 1.617188 -0.75 2.140625 -1.15625 C 2.671875 -1.570312 3.148438 -2.082031 3.578125 -2.6875 C 3.703125 -2.894531 3.796875 -3.117188 3.859375 -3.359375 C 3.941406 -3.796875 4.132812 -4.164062 4.4375 -4.46875 C 4.75 -4.769531 5.117188 -4.96875 5.546875 -5.0625 C 5.867188 -5.125 6.175781 -5.070312 6.46875 -4.90625 C 6.476562 -4.90625 6.488281 -4.894531 6.5 -4.875 C 6.519531 -4.851562 6.523438 -4.832031 6.515625 -4.8125 C 6.523438 -4.800781 6.519531 -4.789062 6.5 -4.78125 C 6.476562 -4.769531 6.457031 -4.757812 6.4375 -4.75 C 6.382812 -4.738281 6.347656 -4.734375 6.328125 -4.734375 C 6.234375 -4.734375 6.148438 -4.734375 6.078125 -4.734375 C 6.015625 -4.742188 5.941406 -4.738281 5.859375 -4.71875 C 5.671875 -4.675781 5.476562 -4.59375 5.28125 -4.46875 C 5.082031 -4.34375 4.910156 -4.1875 4.765625 -4 C 4.617188 -3.8125 4.5 -3.613281 4.40625 -3.40625 C 4.3125 -3.207031 4.289062 -3 4.34375 -2.78125 C 4.375 -2.644531 4.445312 -2.535156 4.5625 -2.453125 C 4.675781 -2.367188 4.8125 -2.34375 4.96875 -2.375 C 5.03125 -2.382812 5.09375 -2.398438 5.15625 -2.421875 C 5.21875 -2.453125 5.28125 -2.484375 5.34375 -2.515625 C 5.90625 -2.847656 6.296875 -3.316406 6.515625 -3.921875 C 6.535156 -4.003906 6.5625 -4.085938 6.59375 -4.171875 C 6.625 -4.253906 6.660156 -4.34375 6.703125 -4.4375 C 6.742188 -4.5 6.773438 -4.546875 6.796875 -4.578125 C 6.804688 -4.585938 6.832031 -4.597656 6.875 -4.609375 C 6.9375 -4.617188 6.988281 -4.613281 7.03125 -4.59375 C 7.050781 -4.570312 7.066406 -4.546875 7.078125 -4.515625 C 7.097656 -4.492188 7.109375 -4.46875 7.109375 -4.4375 C 7.085938 -4.21875 7.046875 -4.019531 6.984375 -3.84375 C 6.921875 -3.539062 6.925781 -3.242188 7 -2.953125 C 7.070312 -2.640625 7.21875 -2.390625 7.4375 -2.203125 C 7.664062 -2.015625 7.941406 -1.914062 8.265625 -1.90625 C 8.335938 -1.894531 8.410156 -1.894531 8.484375 -1.90625 C 8.554688 -1.925781 8.628906 -1.9375 8.703125 -1.9375 Z M 8.703125 -1.9375" transform="translate(29.822 43.025)"/></g></g></g><g><g><g><path d="M 7.625 -1.703125 C 7.6875 -1.710938 7.722656 -1.679688 7.734375 -1.609375 C 7.753906 -1.546875 7.734375 -1.507812 7.671875 -1.5 C 6.984375 -1.351562 6.445312 -1.394531 6.0625 -1.625 C 5.945312 -1.675781 5.859375 -1.726562 5.796875 -1.78125 C 5.578125 -1.925781 5.453125 -2.09375 5.421875 -2.28125 C 5.398438 -2.46875 5.378906 -2.597656 5.359375 -2.671875 C 5.335938 -2.785156 5.347656 -2.898438 5.390625 -3.015625 C 5.429688 -3.140625 5.421875 -3.257812 5.359375 -3.375 C 5.335938 -3.382812 5.273438 -3.40625 5.171875 -3.4375 C 5.078125 -3.476562 4.972656 -3.515625 4.859375 -3.546875 C 4.742188 -3.578125 4.609375 -3.613281 4.453125 -3.65625 C 4.410156 -3.644531 4.332031 -3.5625 4.21875 -3.40625 C 4.113281 -3.238281 4.007812 -3.070312 3.90625 -2.90625 C 3.800781 -2.75 3.6875 -2.59375 3.5625 -2.4375 C 3.550781 -2.414062 3.535156 -2.394531 3.515625 -2.375 C 3.503906 -2.351562 3.492188 -2.328125 3.484375 -2.296875 C 3.054688 -1.703125 2.550781 -1.1875 1.96875 -0.75 C 1.394531 -0.320312 0.742188 -0.03125 0.015625 0.125 C -0.078125 0.144531 -0.132812 0.117188 -0.15625 0.046875 C -0.164062 -0.015625 -0.140625 -0.0507812 -0.078125 -0.0625 C 0.671875 -0.21875 1.359375 -0.539062 1.984375 -1.03125 C 2.273438 -1.320312 2.519531 -1.582031 2.71875 -1.8125 C 2.925781 -2.050781 3.113281 -2.296875 3.28125 -2.546875 C 3.457031 -2.796875 3.617188 -3.066406 3.765625 -3.359375 C 3.910156 -3.648438 4.0625 -3.992188 4.21875 -4.390625 C 4.226562 -4.421875 4.238281 -4.453125 4.25 -4.484375 C 4.269531 -4.523438 4.285156 -4.566406 4.296875 -4.609375 C 4.328125 -4.691406 4.394531 -4.742188 4.5 -4.765625 C 4.53125 -4.773438 4.582031 -4.78125 4.65625 -4.78125 C 4.78125 -4.75 4.84375 -4.648438 4.84375 -4.484375 C 4.832031 -4.421875 4.820312 -4.351562 4.8125 -4.28125 C 4.8125 -4.21875 4.8125 -4.15625 4.8125 -4.09375 C 4.8125 -3.96875 4.851562 -3.863281 4.9375 -3.78125 C 5.03125 -3.707031 5.140625 -3.675781 5.265625 -3.6875 C 5.347656 -3.695312 5.410156 -3.707031 5.453125 -3.71875 C 5.503906 -3.726562 5.550781 -3.734375 5.59375 -3.734375 C 5.644531 -3.742188 5.695312 -3.742188 5.75 -3.734375 C 5.8125 -3.722656 5.878906 -3.695312 5.953125 -3.65625 C 6.015625 -3.613281 6.035156 -3.550781 6.015625 -3.46875 C 5.992188 -3.382812 5.984375 -3.289062 5.984375 -3.1875 C 5.972656 -3.0625 5.957031 -2.925781 5.9375 -2.78125 C 5.925781 -2.632812 5.925781 -2.5 5.9375 -2.375 C 5.957031 -2.25 6.003906 -2.132812 6.078125 -2.03125 C 6.160156 -1.925781 6.285156 -1.828125 6.453125 -1.734375 C 6.535156 -1.710938 6.597656 -1.691406 6.640625 -1.671875 C 6.679688 -1.660156 6.71875 -1.644531 6.75 -1.625 C 6.875 -1.613281 7.007812 -1.613281 7.15625 -1.625 C 7.300781 -1.632812 7.457031 -1.660156 7.625 -1.703125 Z M 7.625 -1.703125" transform="translate(37.55 41.389)"/></g></g></g><g><g><g><path d="M 8.5 -1.890625 C 8.5625 -1.910156 8.597656 -1.890625 8.609375 -1.828125 C 8.617188 -1.765625 8.59375 -1.722656 8.53125 -1.703125 C 7.675781 -1.523438 7.101562 -1.585938 6.8125 -1.890625 C 6.800781 -1.898438 6.789062 -1.910156 6.78125 -1.921875 C 6.769531 -1.941406 6.757812 -1.960938 6.75 -1.984375 C 6.613281 -2.078125 6.507812 -2.1875 6.4375 -2.3125 C 6.363281 -2.445312 6.320312 -2.613281 6.3125 -2.8125 C 6.3125 -2.988281 6.328125 -3.179688 6.359375 -3.390625 C 6.390625 -3.609375 6.421875 -3.8125 6.453125 -4 C 6.484375 -4.1875 6.503906 -4.347656 6.515625 -4.484375 C 6.535156 -4.628906 6.519531 -4.726562 6.46875 -4.78125 C 6.445312 -4.8125 6.414062 -4.820312 6.375 -4.8125 C 6.320312 -4.800781 6.285156 -4.773438 6.265625 -4.734375 C 5.929688 -4.484375 5.660156 -4.195312 5.453125 -3.875 C 5.242188 -3.5625 5.066406 -3.207031 4.921875 -2.8125 C 4.867188 -2.707031 4.820312 -2.597656 4.78125 -2.484375 C 4.738281 -2.378906 4.691406 -2.257812 4.640625 -2.125 C 4.597656 -2.019531 4.523438 -1.957031 4.421875 -1.9375 C 4.390625 -1.925781 4.34375 -1.925781 4.28125 -1.9375 C 4.113281 -1.957031 4.035156 -2.035156 4.046875 -2.171875 C 4.046875 -2.253906 4.039062 -2.332031 4.03125 -2.40625 C 4.03125 -2.476562 4.035156 -2.554688 4.046875 -2.640625 C 3.992188 -2.628906 3.957031 -2.613281 3.9375 -2.59375 C 3.6875 -2.28125 3.410156 -1.976562 3.109375 -1.6875 C 2.804688 -1.394531 2.484375 -1.128906 2.140625 -0.890625 C 1.804688 -0.660156 1.453125 -0.457031 1.078125 -0.28125 C 0.703125 -0.101562 0.328125 0.0234375 -0.046875 0.109375 C -0.109375 0.117188 -0.144531 0.09375 -0.15625 0.03125 C -0.164062 -0.03125 -0.140625 -0.0664062 -0.078125 -0.078125 C 0.367188 -0.171875 0.820312 -0.34375 1.28125 -0.59375 C 1.914062 -1 2.488281 -1.488281 3 -2.0625 C 3.507812 -2.644531 3.960938 -3.257812 4.359375 -3.90625 C 4.441406 -4.007812 4.5 -4.113281 4.53125 -4.21875 C 4.5625 -4.332031 4.601562 -4.441406 4.65625 -4.546875 C 4.71875 -4.703125 4.796875 -4.847656 4.890625 -4.984375 C 4.898438 -5.003906 4.925781 -5.019531 4.96875 -5.03125 C 5.019531 -5.039062 5.09375 -5.035156 5.1875 -5.015625 C 5.257812 -4.972656 5.296875 -4.910156 5.296875 -4.828125 C 5.296875 -4.742188 5.285156 -4.660156 5.265625 -4.578125 C 5.253906 -4.503906 5.25 -4.429688 5.25 -4.359375 C 5.238281 -4.335938 5.25 -4.304688 5.28125 -4.265625 L 5.3125 -4.28125 C 5.332031 -4.289062 5.34375 -4.296875 5.34375 -4.296875 C 5.382812 -4.347656 5.429688 -4.398438 5.484375 -4.453125 C 5.535156 -4.515625 5.585938 -4.570312 5.640625 -4.625 C 5.710938 -4.695312 5.78125 -4.757812 5.84375 -4.8125 C 5.914062 -4.863281 5.988281 -4.921875 6.0625 -4.984375 C 6.15625 -5.054688 6.25 -5.101562 6.34375 -5.125 C 6.445312 -5.144531 6.554688 -5.15625 6.671875 -5.15625 C 6.796875 -5.164062 6.894531 -5.117188 6.96875 -5.015625 C 7.019531 -4.960938 7.050781 -4.914062 7.0625 -4.875 C 7.082031 -4.832031 7.097656 -4.796875 7.109375 -4.765625 C 7.117188 -4.742188 7.125 -4.707031 7.125 -4.65625 C 7.144531 -4.53125 7.148438 -4.414062 7.140625 -4.3125 C 7.128906 -4.21875 7.113281 -4.101562 7.09375 -3.96875 C 7.082031 -3.84375 7.0625 -3.679688 7.03125 -3.484375 C 7.007812 -3.285156 6.976562 -3.019531 6.9375 -2.6875 C 6.925781 -2.582031 6.941406 -2.476562 6.984375 -2.375 C 7.035156 -2.28125 7.109375 -2.191406 7.203125 -2.109375 C 7.296875 -2.035156 7.40625 -1.972656 7.53125 -1.921875 C 7.65625 -1.867188 7.78125 -1.835938 7.90625 -1.828125 C 8.0625 -1.828125 8.257812 -1.847656 8.5 -1.890625 Z M 8.5 -1.890625" transform="translate(44.202 39.98)"/></g></g></g><g><g><g><path d="M 7.75 -1.734375 C 7.8125 -1.753906 7.847656 -1.734375 7.859375 -1.671875 C 7.867188 -1.609375 7.84375 -1.566406 7.78125 -1.546875 C 5.925781 -1.160156 4.71875 -1.28125 4.15625 -1.90625 C 4.03125 -1.988281 3.941406 -2.117188 3.890625 -2.296875 C 3.835938 -2.296875 3.78125 -2.253906 3.71875 -2.171875 C 3.65625 -2.097656 3.5625 -1.988281 3.4375 -1.84375 C 3.101562 -1.476562 2.726562 -1.171875 2.3125 -0.921875 C 1.945312 -0.648438 1.566406 -0.429688 1.171875 -0.265625 C 0.785156 -0.109375 0.378906 0.015625 -0.046875 0.109375 C -0.109375 0.117188 -0.144531 0.09375 -0.15625 0.03125 C -0.164062 -0.03125 -0.140625 -0.0664062 -0.078125 -0.078125 C -0.078125 -0.078125 -0.0546875 -0.0820312 -0.015625 -0.09375 C 0.410156 -0.1875 0.8125 -0.316406 1.1875 -0.484375 C 1.570312 -0.660156 1.925781 -0.875 2.25 -1.125 C 2.582031 -1.375 2.875 -1.644531 3.125 -1.9375 C 3.382812 -2.238281 3.582031 -2.550781 3.71875 -2.875 C 3.738281 -2.9375 3.753906 -3 3.765625 -3.0625 C 3.773438 -3.132812 3.796875 -3.207031 3.828125 -3.28125 C 3.941406 -3.71875 4.128906 -4.082031 4.390625 -4.375 C 4.660156 -4.664062 5.019531 -4.878906 5.46875 -5.015625 C 5.632812 -5.046875 5.789062 -5.0625 5.9375 -5.0625 C 6.09375 -5.070312 6.25 -5.03125 6.40625 -4.9375 C 6.800781 -4.75 6.957031 -4.4375 6.875 -4 C 6.832031 -3.675781 6.679688 -3.40625 6.421875 -3.1875 C 6.171875 -2.96875 5.910156 -2.820312 5.640625 -2.75 L 5.359375 -2.6875 C 5.234375 -2.65625 5.109375 -2.632812 4.984375 -2.625 C 4.867188 -2.613281 4.75 -2.613281 4.625 -2.625 C 4.59375 -2.632812 4.554688 -2.632812 4.515625 -2.625 C 4.390625 -2.59375 4.363281 -2.492188 4.4375 -2.328125 C 4.550781 -2.066406 4.695312 -1.882812 4.875 -1.78125 C 5.050781 -1.6875 5.265625 -1.609375 5.515625 -1.546875 C 5.796875 -1.515625 6.113281 -1.507812 6.46875 -1.53125 C 6.832031 -1.5625 7.257812 -1.628906 7.75 -1.734375 Z M 4.4375 -3.359375 C 4.351562 -3.140625 4.34375 -3.003906 4.40625 -2.953125 C 4.476562 -2.898438 4.601562 -2.867188 4.78125 -2.859375 C 4.820312 -2.867188 4.878906 -2.878906 4.953125 -2.890625 C 5.128906 -2.929688 5.304688 -3.003906 5.484375 -3.109375 C 5.671875 -3.210938 5.84375 -3.332031 6 -3.46875 C 6.15625 -3.613281 6.273438 -3.769531 6.359375 -3.9375 C 6.441406 -4.113281 6.460938 -4.304688 6.421875 -4.515625 C 6.398438 -4.609375 6.351562 -4.675781 6.28125 -4.71875 C 6.207031 -4.769531 6.117188 -4.789062 6.015625 -4.78125 L 5.875 -4.75 C 5.789062 -4.738281 5.710938 -4.71875 5.640625 -4.6875 C 5.566406 -4.664062 5.488281 -4.628906 5.40625 -4.578125 C 5.164062 -4.441406 4.96875 -4.265625 4.8125 -4.046875 C 4.664062 -3.828125 4.539062 -3.597656 4.4375 -3.359375 Z M 4.4375 -3.359375" transform="translate(51.71 38.39)"/></g></g></g><g><g><g><path d="M 7.625 -1.703125 C 7.6875 -1.710938 7.722656 -1.679688 7.734375 -1.609375 C 7.753906 -1.546875 7.734375 -1.507812 7.671875 -1.5 C 6.984375 -1.351562 6.445312 -1.394531 6.0625 -1.625 C 5.945312 -1.675781 5.859375 -1.726562 5.796875 -1.78125 C 5.578125 -1.925781 5.453125 -2.09375 5.421875 -2.28125 C 5.398438 -2.46875 5.378906 -2.597656 5.359375 -2.671875 C 5.335938 -2.785156 5.347656 -2.898438 5.390625 -3.015625 C 5.429688 -3.140625 5.421875 -3.257812 5.359375 -3.375 C 5.335938 -3.382812 5.273438 -3.40625 5.171875 -3.4375 C 5.078125 -3.476562 4.972656 -3.515625 4.859375 -3.546875 C 4.742188 -3.578125 4.609375 -3.613281 4.453125 -3.65625 C 4.410156 -3.644531 4.332031 -3.5625 4.21875 -3.40625 C 4.113281 -3.238281 4.007812 -3.070312 3.90625 -2.90625 C 3.800781 -2.75 3.6875 -2.59375 3.5625 -2.4375 C 3.550781 -2.414062 3.535156 -2.394531 3.515625 -2.375 C 3.503906 -2.351562 3.492188 -2.328125 3.484375 -2.296875 C 3.054688 -1.703125 2.550781 -1.1875 1.96875 -0.75 C 1.394531 -0.320312 0.742188 -0.03125 0.015625 0.125 C -0.078125 0.144531 -0.132812 0.117188 -0.15625 0.046875 C -0.164062 -0.015625 -0.140625 -0.0507812 -0.078125 -0.0625 C 0.671875 -0.21875 1.359375 -0.539062 1.984375 -1.03125 C 2.273438 -1.320312 2.519531 -1.582031 2.71875 -1.8125 C 2.925781 -2.050781 3.113281 -2.296875 3.28125 -2.546875 C 3.457031 -2.796875 3.617188 -3.066406 3.765625 -3.359375 C 3.910156 -3.648438 4.0625 -3.992188 4.21875 -4.390625 C 4.226562 -4.421875 4.238281 -4.453125 4.25 -4.484375 C 4.269531 -4.523438 4.285156 -4.566406 4.296875 -4.609375 C 4.328125 -4.691406 4.394531 -4.742188 4.5 -4.765625 C 4.53125 -4.773438 4.582031 -4.78125 4.65625 -4.78125 C 4.78125 -4.75 4.84375 -4.648438 4.84375 -4.484375 C 4.832031 -4.421875 4.820312 -4.351562 4.8125 -4.28125 C 4.8125 -4.21875 4.8125 -4.15625 4.8125 -4.09375 C 4.8125 -3.96875 4.851562 -3.863281 4.9375 -3.78125 C 5.03125 -3.707031 5.140625 -3.675781 5.265625 -3.6875 C 5.347656 -3.695312 5.410156 -3.707031 5.453125 -3.71875 C 5.503906 -3.726562 5.550781 -3.734375 5.59375 -3.734375 C 5.644531 -3.742188 5.695312 -3.742188 5.75 -3.734375 C 5.8125 -3.722656 5.878906 -3.695312 5.953125 -3.65625 C 6.015625 -3.613281 6.035156 -3.550781 6.015625 -3.46875 C 5.992188 -3.382812 5.984375 -3.289062 5.984375 -3.1875 C 5.972656 -3.0625 5.957031 -2.925781 5.9375 -2.78125 C 5.925781 -2.632812 5.925781 -2.5 5.9375 -2.375 C 5.957031 -2.25 6.003906 -2.132812 6.078125 -2.03125 C 6.160156 -1.925781 6.285156 -1.828125 6.453125 -1.734375 C 6.535156 -1.710938 6.597656 -1.691406 6.640625 -1.671875 C 6.679688 -1.660156 6.71875 -1.644531 6.75 -1.625 C 6.875 -1.613281 7.007812 -1.613281 7.15625 -1.625 C 7.300781 -1.632812 7.457031 -1.660156 7.625 -1.703125 Z M 7.625 -1.703125" transform="translate(58.488 36.954)"/></g></g></g></svg>